<svg xmlns="http://www.w3.org/2000/svg" width="200.889" height="220.97" viewBox="0 0 212.889 294.97">
  <g id="Group_520" data-name="Group 520" transform="translate(-1507.555 -5847.848)">
    <g id="Group_517" data-name="Group 517" transform="translate(1205.92 5822.076)">
      <path id="Path_1327" data-name="Path 1327" d="M398.566,156.4H372.111l-2.537-29.01h26.455Z" transform="translate(109.813 164.247)" fill="#e89363"/>
      <g id="Group_330" data-name="Group 330" transform="translate(301.635 25.773)">
        <path id="Path_1328" data-name="Path 1328" d="M370.758,220.348c-.055-.037-.115-.063-.173-.1,0,0-6.384-116.362,4.351-132.366,0,0,22.2,5.526,23.979,20,0,0,6.114,99.544,7.208,112.466Z" transform="translate(-193.233 74.622)" fill="#002034"/>
        <g id="Group_329" data-name="Group 329" transform="translate(0 15.262)">
          <g id="Group_328" data-name="Group 328">
            <g id="Group_327" data-name="Group 327">
              <path id="Path_1329" data-name="Path 1329" d="M304.121,156.4h26.455l2.537-29.01H306.658Z" transform="translate(-297.617 123.212)" fill="#e89363"/>
              <path id="Path_1330" data-name="Path 1330" d="M338.238,220.348c.058-.037.115-.063.173-.1,0,0,6.384-116.362-4.351-132.366,0,0-22.2,5.526-23.979,20,0,0-7.349,99.544-8.445,112.466Z" transform="translate(-301.635 59.36)" fill="#002034"/>
              <path id="Path_1331" data-name="Path 1331" d="M322.842,142.08c3.739,13.958-7.467,51.218-17,66.233h25.585c.058-.037.115-.063.173-.1,0,0,4.115-75.039.178-112.885l-1.952,3.877S318.483,125.817,322.842,142.08Z" transform="translate(-294.829 71.396)" fill="#001926"/>
              <g id="Group_326" data-name="Group 326" transform="translate(29.911)">
                <g id="Group_325" data-name="Group 325">
                  <g id="Group_324" data-name="Group 324">
                    <g id="Group_323" data-name="Group 323">
                      <g id="Group_322" data-name="Group 322">
                        <g id="Group_321" data-name="Group 321">
                          <g id="Group_320" data-name="Group 320">
                            <path id="Path_1332" data-name="Path 1332" d="M463.979,100.2s-39.067-15.392-73.755-19.942c-34.69,4.55-73.708,19.942-73.708,19.942-4.238.96-3.378,11.7-3.378,11.7s6.617,69.385,14.8,90.528c0,0,2.538,20.3,1.478,30.14H451.073c-1.057-9.84,1.481-30.14,1.481-30.14,8.187-21.143,14.8-90.528,14.8-90.528S468.218,101.165,463.979,100.2Z" transform="translate(-313.068 47.04)" fill="#002034"/>
                            <path id="Path_1333" data-name="Path 1333" d="M364.3,85.868h0L329.234,88.32s29.672,85.486,30.5,90.468,4.565,23.448,4.565,23.448h0s3.731-18.469,4.563-23.448,30.5-90.468,30.5-90.468Z" transform="translate(-286.937 56.1)" fill="#b9e1f1"/>
                            <path id="Path_1334" data-name="Path 1334" d="M353.09,91.722h-7.158s-6.269,35.8-7.483,57.546c3.571,10.664,6.156,18.636,6.392,20.057.829,4.979,4.565,23.448,4.565,23.448h0s3.731-18.469,4.563-23.448c.262-1.57,3.391-11.143,7.548-23.518C359.251,126.208,355.241,94.087,353.09,91.722Z" transform="translate(-272.042 65.562)" fill="#060f14"/>
                            <path id="Path_1335" data-name="Path 1335" d="M357.565,90.285l-9.128-3.778V86.4l-.131.052-.131-.052v.107l-9.126,3.778s3.265,10.5,4.979,12.527a28.487,28.487,0,0,0,4.147,1.232v.044c.039-.005.089-.016.131-.024.044.008.092.018.131.024v-.044a28.558,28.558,0,0,0,4.15-1.232C354.3,100.79,357.565,90.285,357.565,90.285Z" transform="translate(-271.073 56.96)" fill="#060f14"/>
                            <g id="Group_319" data-name="Group 319" transform="translate(30.803)">
                              <path id="Path_1336" data-name="Path 1336" d="M331.965,67.169s7.234,25.423.521,39.834c0,0,24.021,19.345,54.8,2.056,0,0-6.114-26.32-.719-41.89Z" transform="translate(-313.326 25.876)" fill="#d88e64"/>
                              <path id="Path_1337" data-name="Path 1337" d="M386.1,102.89a122.143,122.143,0,0,1-1.756-19.879,54.6,54.6,0,0,1,1.839-15.842H331.965a100.8,100.8,0,0,1,2.295,11,17.994,17.994,0,0,1,.424,2.07c5.717,4.856,17.446,18,21.883,18.594,0,0,7.776,2.059,11.211-.659,0,0-2.2,12.349-6.316,18.045a48.2,48.2,0,0,0,6.878-.5c.824-.123,1.654-.264,2.491-.432Z" transform="translate(-313.326 25.876)" fill="#c27754"/>
                              <g id="Group_318" data-name="Group 318">
                                <path id="Path_1338" data-name="Path 1338" d="M332.567,54.848s-3.7-7.967-6.816-.654c0,0-3.111,8.121,2.166,15.018a46.906,46.906,0,0,1,4.034,4.618s2.543,6.536,4.382,2.616Z" transform="translate(-324.841 -0.088)" fill="#dfa072"/>
                                <path id="Path_1339" data-name="Path 1339" d="M360.369,54.848s3.7-7.967,6.816-.654c0,0,3.113,8.121-2.166,15.018a47.558,47.558,0,0,0-4.037,4.618s-2.538,6.536-4.377,2.616Z" transform="translate(-273.501 -0.088)" fill="#d28c62"/>
                                <path id="Path_1340" data-name="Path 1340" d="M402.682,113.448c3.924-13.961,5.008-29.955,5.008-29.955,0-32.257-17.7-51.547-39.724-51.887h-.44c-22.022.34-39.732,22.5-39.732,54.76a122.159,122.159,0,0,0,4.181,27.082s1.3,6.5,3.009,8.37,21.789,28.479,26.768,29.41c0,0,8.4,1.4,12.608-.62s15.716-14.008,24.431-26.145C401.039,121.331,401.117,119.008,402.682,113.448Z" transform="translate(-320.068 -31.606)" fill="#e59d70"/>
                                <path id="Path_1341" data-name="Path 1341" d="M367.13,31.606h-.44c-18.443.285-33.85,15.879-38.379,39.884l4.947.4s1.175-10.612,4.613-11.235c0,0,22.576,7.47,29.036,7.47s18.908-1.865,21.4-3.425,5.913-3.734,6.847-2.488-3.111,18.362,0,22.409-1.554,30.19-4.359,36.414-16.967,26.454-23.887,26.768-8.61-.364-14.926-4.382c3.841,4.238,7.253,7.491,8.935,7.8,0,0,8.4,1.4,12.608-.62s15.716-14.008,24.431-26.145c2.247-3.132,2.326-5.455,3.891-11.015,3.924-13.961,5.008-29.955,5.008-29.955,0-23.565-9.453-40.2-23.131-47.589-3.618-1.253-7.3-2.522-10.957-3.773A37.419,37.419,0,0,0,367.13,31.606Z" transform="translate(-319.232 -31.606)" fill="#d28b60"/>
                              </g>
                            </g>
                          </g>
                        </g>
                      </g>
                    </g>
                  </g>
                </g>
              </g>
              <path id="Path_1342" data-name="Path 1342" d="M404.127,94.158c-1.844-2.022-11.193-17.132-13.351-17.616,0,0-17.2,19.981-25.036,24.4-7.831-4.419-25.036-24.4-25.036-24.4-2.161.484-6.609,9.058-12.21,17.307-1.083,1.593,4.045,23.094,4.283,24.963a1.219,1.219,0,0,0,1.894,1.018c8.359-5.6,26.391-13.741,28.874-14.929a4.085,4.085,0,0,0,2.2-2.567,4.077,4.077,0,0,0,2.2,2.567c2.483,1.188,20.515,9.33,28.877,14.929a1.215,1.215,0,0,0,1.889-1.018C398.939,116.944,405.425,95.581,404.127,94.158Z" transform="translate(-258.465 41.026)" fill="#fff"/>
            </g>
          </g>
        </g>
        <path id="Path_1343" data-name="Path 1343" d="M331.458,98.338s1.614-6.465,4.725-10.821a7.375,7.375,0,0,0,0-8.508s.557-10.544,3.754-12.378c0,0,22.181,1.9,28.1,4.856s23.5-1.868,25.211-3.736,6.536-1.777,8.4-1.12,2.771,7.035,2.865,10.3.56,8.558,1.962,9.649,2.292,9.882,2.794,11.755c0,0,5.453-14.089,4.364-17.98s-1.557-9.042-.468-12,1.245-10.117,0-12.608-1.371-4.6-6.823-13.056c-4.152-6.431-11.826-13.333-16.653-15.044s-35.637-3.579-40.3.937-11.7,4.3-14.652,10.79a15.273,15.273,0,0,0-7.054,10.58c-1.248,7.47-3.215,16.289-.416,26.559S331.021,96.347,331.458,98.338Z" transform="translate(-262.522 -25.773)" fill="#1c1510"/>
      </g>
      <path id="Path_1344" data-name="Path 1344" d="M337.9,150.065c-6.384-2.509-17.427-28.032-22.89-41.524,2.609,18.641,6.031,38.486,9.785,48.183,0,0,2.538,20.3,1.478,30.14H348.11c-3.331-11.017-9.173-27.733-7.383-30.263C342.927,153.487,337.9,150.065,337.9,150.065Z" transform="translate(21.623 133.782)" fill="#001926"/>
      <path id="Path_1345" data-name="Path 1345" d="M396.977,108.01c-1.457-6.491-2.745-9.495-3.074-3.7-.9,15.873-26.234,61.937-26.234,61.937-1.881,10.735-10.468,27.417-13.147,32.443h29.546c-1.057-9.84,1.481-30.14,1.481-30.14C390.154,156.658,394.262,129.5,396.977,108.01Z" transform="translate(85.484 121.954)" fill="#001926"/>
      <path id="Path_1346" data-name="Path 1346" d="M380.291,189.136c-8.1-5.748-1.868-52.458-2.784-58.685-.882-5.981-8.126-22.006-8.694-23.257-.651,37.66,1.771,81.844,1.771,81.844.058.034.118.06.173.1Z" transform="translate(108.403 131.607)" fill="#001926"/>
      <path id="Path_1347" data-name="Path 1347" d="M402.438,86.583c1.4,1.088,2.292,9.882,2.794,11.755,0,0,5.453-14.089,4.364-17.98s-1.557-9.042-.468-12,1.245-10.117,0-12.608-1.371-4.6-6.823-13.056c-4.152-6.431-11.826-13.333-16.653-15.044s-35.637-3.579-40.3.937c-3.569,3.448-8.514,4.15-11.967,7.182.586-.228,15.821-6.156,23-3.409,7.313,2.8,18.516,2.072,23.806,1.347s11.928,3.631,11.878,6.122-5.9,14.939-14.183,17.43-48.413-1.614-49.509,4.8c-.4,2.315,2.488,4.28,6.326,5.85A3.706,3.706,0,0,1,335.9,66.63s22.181,1.9,28.1,4.856,23.5-1.868,25.211-3.736,6.536-1.777,8.4-1.12,2.771,7.035,2.865,10.3S401.036,85.492,402.438,86.583Z" transform="translate(43.148 0)" fill="#110d0b"/>
    </g>
  </g>
</svg>
