<svg xmlns="http://www.w3.org/2000/svg" xmlns:xlink="http://www.w3.org/1999/xlink" width="200" height="220" viewBox="0 0 213 289">
  <defs>
    <clipPath id="clip-path">
      <rect id="Rectangle_69" data-name="Rectangle 69" width="213" height="289" transform="translate(145 5854)" fill="#fff" stroke="#707070" stroke-width="1"/>
    </clipPath>
  </defs>
  <g id="Mask_Group_21" data-name="Mask Group 21" transform="translate(-145 -5854)" clip-path="url(#clip-path)">
    <g id="Group_315" data-name="Group 315" transform="translate(151 5870.372)">
      <path id="Path_1305" data-name="Path 1305" d="M217.23,70.646s4.66,28.985-.989,39.3-22.6,30.458-20.146,36.108,108.287,0,108.287,0S297.515,116.088,292,96.683s.248-33.332,1.279-38.531S217.23,70.646,217.23,70.646Z" transform="translate(-160.09 30.368)" fill="#6e3828"/>
      <path id="Path_1306" data-name="Path 1306" d="M208.489,68.4s1.964,15.719,4.424,20.879-5.9,30.7-10.2,35.863,78.237,3.685,78.237,3.685-11.3-24.564-10.07-34.879,1.229-29.723,0-32.67S208.489,68.4,208.489,68.4Z" transform="translate(-147.917 36.794)" fill="#64291c"/>
      <g id="Group_314" data-name="Group 314" transform="translate(0 10.892)">
        <g id="Group_313" data-name="Group 313">
          <path id="Path_1307" data-name="Path 1307" d="M244.148,84.3s23.9.361,25.545,30.165c0,0,8.025,112.26,7.695,117.9H253.97S239.4,136.413,237.1,126.258C237.1,126.258,236.287,100.319,244.148,84.3Z" transform="translate(-85.157 68.749)" fill="#e89363"/>
          <path id="Path_1308" data-name="Path 1308" d="M244.148,84.3s23.9.361,25.545,30.165c0,0,8.025,112.26,7.695,117.9H253.97S239.4,136.413,237.1,126.258C237.1,126.258,236.287,100.319,244.148,84.3Z" transform="translate(-85.157 68.749)" fill="#3d9bb5"/>
          <path id="Path_1309" data-name="Path 1309" d="M261.136,206.994c-3.049-7.624-8.565-32.29-6.6-51.416,2.3-22.27-9.428-51.407-9.428-51.407l-4.982-5.906-2.46,11.561c4.491,26.432,15.232,97.168,15.232,97.168Z" transform="translate(-84.087 94.125)" fill="#317f91"/>
          <path id="Path_1310" data-name="Path 1310" d="M216.413,84.3s-23.908.361-25.545,30.165c0,0-8.025,112.26-7.7,117.9h23.42s14.57-95.957,16.866-106.112C223.457,126.258,224.274,100.319,216.413,84.3Z" transform="translate(-183.161 68.749)" fill="#3d9bb5"/>
          <path id="Path_1311" data-name="Path 1311" d="M205.15,100.5s-8.839,21.543-7.856,45.454c.778,18.906-5.2,45.986-9.036,56.984h9.067s9.476-62.4,14.347-91.883Z" transform="translate(-173.895 98.184)" fill="#317f91"/>
          <g id="Group_312" data-name="Group 312" transform="translate(27.317)">
            <g id="Group_311" data-name="Group 311">
              <g id="Group_310" data-name="Group 310">
                <g id="Group_309" data-name="Group 309">
                  <g id="Group_308" data-name="Group 308">
                    <g id="Group_307" data-name="Group 307">
                      <g id="Group_306" data-name="Group 306">
                        <g id="Group_305" data-name="Group 305">
                          <g id="Group_304" data-name="Group 304">
                            <g id="Group_303" data-name="Group 303">
                              <g id="Group_302" data-name="Group 302">
                                <g id="Group_301" data-name="Group 301">
                                  <path id="Path_1312" data-name="Path 1312" d="M328.294,130.521s.8-34.536-3.764-35.57c0,0-20.887-4.765-54.913-15.956-3.373-1.11-6.345-.234-9.611.02v.1c-3.263-.254-6.235-1.13-9.608-.02-34.026,11.192-54.913,15.956-54.913,15.956-4.565,1.034-1.8,34.482-1.8,34.482s6.407,48.249,12.212,76.473c0,0,2.9,26.517,1.761,37.114h52.349v-.107h52.349c-1.138-10.594,1.761-37.111,1.761-37.111C319.923,177.682,328.294,130.521,328.294,130.521Z" transform="translate(-192.856 58.102)" fill="#3d9bb5"/>
                                  <path id="Path_1313" data-name="Path 1313" d="M328.032,101.648s.017-.642.028-1.724c-4.553,12.274-10.217,32.5-12.637,40.188-3.6,11.445-30.165,7.224-36.716,5.258s-26.528-3.274-36.353.327-29.444,5.244-34.657,2.294S193,94.331,193,94.331v0c.211,3.75.423,6.331.423,6.331s6.407,48.249,12.212,76.473c0,0,2.9,26.517,1.761,37.114h52.349v-.107h52.349c-1.138-10.594,1.761-37.111,1.761-37.111C319.66,148.81,328.032,101.648,328.032,101.648Z" transform="translate(-192.593 86.974)" fill="#317f91"/>
                                  <path id="Path_1314" data-name="Path 1314" d="M251.915,237.361C251.267,221.5,246.843,183,246.843,183c-.983-14.576,9.921-101.44,9.921-101.44l-24.5,2.192-24.5-2.192s10.9,86.864,9.918,101.44c0,0-4.443,38.663-5.077,54.47H232.91v-.107Z" transform="translate(-165.76 63.758)" fill="#fff"/>
                                  <g id="Group_300" data-name="Group 300" transform="translate(15.102)">
                                    <path id="Path_1315" data-name="Path 1315" d="M254.124,110.66s-9.033-28.345-5.435-45.113H212.277s1.164,29.6-4.514,45.113L232.2,142.338Z" transform="translate(-180.862 34.656)" fill="#d88e64"/>
                                    <path id="Path_1316" data-name="Path 1316" d="M209.929,65.547a216.929,216.929,0,0,1-.874,27.024,81.159,81.159,0,0,0,41.963,15.545c-2.094-7.32-7.627-28.827-4.677-42.569Z" transform="translate(-178.513 34.656)" fill="#c17551"/>
                                    <g id="Group_299" data-name="Group 299">
                                      <path id="Path_1317" data-name="Path 1317" d="M206.537,53.515s-3.987-8.582-7.34-.7c0,0-3.353,8.746,2.333,16.173a51.578,51.578,0,0,1,4.348,4.973s2.736,7.036,4.714,2.82Z" transform="translate(-198.216 5.458)" fill="#dfa072"/>
                                      <path id="Path_1318" data-name="Path 1318" d="M234.035,53.515s3.987-8.582,7.34-.7c0,0,3.353,8.746-2.333,16.173a51.577,51.577,0,0,0-4.348,4.973s-2.736,7.036-4.717,2.82Z" transform="translate(-140.483 5.458)" fill="#d28c62"/>
                                      <path id="Path_1319" data-name="Path 1319" d="M281.1,118.122a246.034,246.034,0,0,0,6.114-32.259c0-34.738-19.064-55.513-42.783-55.879h-.471c-23.722.366-42.788,24.234-42.788,58.973a174.637,174.637,0,0,0,5.235,29.165s1.372,7,3.178,9.014,24.355,28.534,28.878,29.543c0,0,7.639,1.507,11.456-.671s17.864-12.953,27.072-26.024C279.364,126.611,279.445,124.112,281.1,118.122Z" transform="translate(-192.847 -29.984)" fill="#e59d70"/>
                                      <path id="Path_1320" data-name="Path 1320" d="M266.1,34.645c-6.376-1.781-12.192-3.392-12.192-3.392S226.35,46.017,206.72,56.688a78.6,78.6,0,0,0-5.551,29.963s.141,1.755.49,4.629c.023-.006,42.709-2.874,63.692-28.094,0,0,4.435,14.708,12.133,25.711,0,0,2.784,10.172.82,19.487s-6.714,20.307-10.645,23.254-18.768,24.062-29.771,22.513a2.8,2.8,0,0,0,.572.223s7.639,1.507,11.456-.671,17.864-12.953,27.072-26.024c2.375-3.373,2.457-5.872,4.108-11.862a246.034,246.034,0,0,0,6.114-32.259C287.211,60.421,278.746,43.49,266.1,34.645Z" transform="translate(-192.847 -27.677)" fill="#d28b60"/>
                                    </g>
                                  </g>
                                </g>
                              </g>
                            </g>
                          </g>
                        </g>
                      </g>
                    </g>
                  </g>
                </g>
              </g>
            </g>
          </g>
        </g>
      </g>
      <path id="Path_1321" data-name="Path 1321" d="M290.3,88.074c.58-11.789,1.727-48.077-12.685-47.488,0,0-5.9-13.919-17.2-14.409S207.38,27.428,201.381,67.32c-2.437,16.224-.524,21.783.516,25.1,0,0,1.358,10.783,1.04,13.854-.4,3.787.707,23.127,4.055,24.665,0,0-.595-16.914,1.231-24.665a38.24,38.24,0,0,0,1.04-11.09c12.5-.459,39.6-4.381,58.615-28.233,0,0,7.695,18.464,13.944,28.844a36.4,36.4,0,0,0,.831,13.248c1.823,7.754,1.228,24.668,1.228,24.668,3.347-1.541,4.452-20.879,4.057-24.668a66.147,66.147,0,0,1,.538-9.447A42.206,42.206,0,0,0,290.3,88.074Z" transform="translate(-152.196 -26.118)" fill="#6e3828"/>
      <path id="Path_1322" data-name="Path 1322" d="M201.217,50.6c-1.327,9.357-1.164,15.024-.6,18.734,4.886-.428,53.667-5.894,68.967-33.375C269.586,35.961,221.132,53.447,201.217,50.6Z" transform="translate(-152.192 -8.228)" fill="#7a3f30"/>
      <path id="Path_1323" data-name="Path 1323" d="M209.829,32.186a42.146,42.146,0,0,0-8.3,13.843c12.812-.335,54.617-2.215,67.589-12.7C269.123,33.324,234.52,37.39,209.829,32.186Z" transform="translate(-149.765 -15.09)" fill="#7a3f30"/>
      <path id="Path_1324" data-name="Path 1324" d="M200.791,74.444a.736.736,0,0,1,.025.085s1.358,10.783,1.04,13.854c-.4,3.787.707,23.127,4.055,24.665,0,0-.595-16.914,1.231-24.665a38.24,38.24,0,0,0,1.04-11.09c12.5-.459,39.6-4.381,58.615-28.233,0,0,7.695,18.464,13.944,28.844a36.4,36.4,0,0,0,.831,13.248c1.823,7.754,1.228,24.668,1.228,24.668,3.347-1.541,4.452-20.879,4.057-24.668a66.149,66.149,0,0,1,.538-9.447,39.957,39.957,0,0,0,1.741-10.2c-9.977-8.6-18.664-35.541-18.664-35.541C257.811,68.645,210.264,73.748,200.791,74.444Z" transform="translate(-151.115 -8.228)" fill="#58291e"/>
      <path id="Path_1325" data-name="Path 1325" d="M241.508,45.422c-6.734-4.629-14.756-11.437-14.756-11.437-1.324,7.43,10.166,20.228,15.745,25.931A123.419,123.419,0,0,0,241.508,45.422Z" transform="translate(-104.119 -11.82)" fill="#7a3f30"/>
    </g>
  </g>
</svg>
