<svg xmlns="http://www.w3.org/2000/svg" width="200.889" height="220.626" viewBox="0 0 212.889 289.626">
  <g id="Group_519" data-name="Group 519" transform="translate(-1020.555 -5853.192)">
    <g id="Group_516" data-name="Group 516" transform="translate(979.337 5552.892)">
      <g id="Group_294" data-name="Group 294" transform="translate(41.218 310.222)">
        <path id="Path_1284" data-name="Path 1284" d="M138.149,428.883H111.694l-2.537-29.007h26.452Z" transform="translate(68.593 -149.278)" fill="#e89363"/>
        <g id="Group_293" data-name="Group 293">
          <path id="Path_1285" data-name="Path 1285" d="M110.341,492.835c-.058-.039-.115-.065-.173-.1,0,0-6.384-116.36,4.351-132.364,0,0,22.2,5.528,23.978,20,0,0,6.114,99.535,7.211,112.46Z" transform="translate(67.181 -213.13)" fill="#2d4d5a"/>
          <g id="Group_292" data-name="Group 292">
            <g id="Group_291" data-name="Group 291">
              <g id="Group_290" data-name="Group 290">
                <path id="Path_1286" data-name="Path 1286" d="M43.7,428.883H70.156l2.537-29.007H46.241Z" transform="translate(-37.2 -149.278)" fill="#e89363"/>
                <path id="Path_1287" data-name="Path 1287" d="M77.818,492.835c.06-.039.118-.065.173-.1,0,0,6.386-116.36-4.348-132.364,0,0-22.2,5.528-23.981,20,0,0-7.347,99.535-8.443,112.46Z" transform="translate(-41.218 -213.13)" fill="#2d4d5a"/>
                <path id="Path_1288" data-name="Path 1288" d="M62.425,414.566c3.739,13.958-7.467,51.217-17,66.232H71.011c.06-.039.118-.065.173-.1,0,0,4.118-75.033.181-112.881L69.413,371.7S58.066,398.3,62.425,414.566Z" transform="translate(-34.412 -201.094)" fill="#25424a"/>
                <g id="Group_289" data-name="Group 289" transform="translate(29.911)">
                  <g id="Group_288" data-name="Group 288">
                    <g id="Group_287" data-name="Group 287">
                      <g id="Group_286" data-name="Group 286">
                        <g id="Group_285" data-name="Group 285">
                          <g id="Group_284" data-name="Group 284">
                            <g id="Group_283" data-name="Group 283">
                              <path id="Path_1289" data-name="Path 1289" d="M203.56,372.689S164.491,357.3,129.807,352.75C95.117,357.3,56.1,372.689,56.1,372.689c-4.238.96-3.378,11.7-3.378,11.7s6.617,69.382,14.8,90.527c0,0,2.538,20.295,1.478,30.135H190.654c-1.057-9.84,1.481-30.135,1.481-30.135,8.186-21.145,14.8-90.527,14.8-90.527S207.8,373.649,203.56,372.689Z" transform="translate(-52.651 -225.448)" fill="#2d4d5a"/>
                              <path id="Path_1290" data-name="Path 1290" d="M118.474,495.994c2.857-36.95,9.767-135.627,9.767-135.627l-28.772-2.012h0l-27.921.154s5.968,101.468,8.4,137.484h38.525Z" transform="translate(-22.106 -216.389)" fill="#b9e1f1"/>
                              <g id="Group_282" data-name="Group 282" transform="translate(30.803)">
                                <path id="Path_1291" data-name="Path 1291" d="M71.548,339.656s7.234,25.42.521,39.833c0,0,24.02,19.342,54.8,2.056,0,0-6.112-26.32-.717-41.89Z" transform="translate(-52.91 -246.612)" fill="#d88e64"/>
                                <path id="Path_1292" data-name="Path 1292" d="M125.679,375.374a122.079,122.079,0,0,1-1.753-19.873,54.611,54.611,0,0,1,1.842-15.844H71.548a100.8,100.8,0,0,1,2.295,11,18.2,18.2,0,0,1,.424,2.067c5.717,4.856,17.446,18,21.883,18.6,0,0,7.776,2.056,11.211-.659,0,0-2.2,12.352-6.316,18.042a47.821,47.821,0,0,0,6.878-.5c.824-.123,1.651-.264,2.491-.432Z" transform="translate(-52.91 -246.612)" fill="#c27754"/>
                                <g id="Group_281" data-name="Group 281">
                                  <path id="Path_1293" data-name="Path 1293" d="M72.15,327.335s-3.7-7.967-6.815-.654c0,0-3.111,8.121,2.169,15.02a46.982,46.982,0,0,1,4.032,4.618s2.543,6.53,4.382,2.616Z" transform="translate(-64.424 -272.576)" fill="#dfa072"/>
                                  <path id="Path_1294" data-name="Path 1294" d="M99.953,327.335s3.7-7.967,6.813-.654c0,0,3.116,8.121-2.164,15.02a47.249,47.249,0,0,0-4.037,4.618s-2.54,6.53-4.38,2.616Z" transform="translate(-13.087 -272.576)" fill="#d28c62"/>
                                  <path id="Path_1295" data-name="Path 1295" d="M142.264,385.934c3.924-13.961,5.005-29.954,5.005-29.954,0-32.256-17.7-51.547-39.721-51.887h-.44c-22.024.34-39.731,22.506-39.731,54.759a122.052,122.052,0,0,0,4.183,27.081s1.3,6.5,3.006,8.367,21.786,28.484,26.767,29.413c0,0,8.4,1.4,12.605-.625s15.719-14,24.434-26.14C140.618,393.817,140.7,391.5,142.264,385.934Z" transform="translate(-59.651 -304.093)" fill="#e59d70"/>
                                  <path id="Path_1296" data-name="Path 1296" d="M106.711,304.093h-.44c-18.442.288-33.852,15.876-38.376,39.886l4.945.4s1.172-10.609,4.613-11.232c0,0,22.574,7.467,29.036,7.467s18.908-1.865,21.4-3.425,5.913-3.734,6.844-2.483-3.111,18.359,0,22.406-1.554,30.19-4.356,36.414-16.964,26.459-23.887,26.77-8.61-.364-14.926-4.385c3.841,4.238,7.252,7.491,8.935,7.8,0,0,8.4,1.4,12.605-.625s15.719-14,24.434-26.14c2.245-3.132,2.323-5.452,3.89-11.015,3.924-13.961,5.005-29.954,5.005-29.954,0-23.565-9.45-40.2-23.128-47.588-3.618-1.251-7.3-2.525-10.957-3.775A37.092,37.092,0,0,0,106.711,304.093Z" transform="translate(-58.814 -304.093)" fill="#d28b60"/>
                                </g>
                              </g>
                            </g>
                          </g>
                        </g>
                      </g>
                    </g>
                  </g>
                </g>
                <path id="Path_1297" data-name="Path 1297" d="M136.74,365.754c-1.844-2.028-6.211-16.239-8.37-16.726,0,0-17.2,19.983-25.035,24.4-7.831-4.419-25.035-24.4-25.035-24.4-2.161.487-3.181,7.027-8.786,15.274-1.083,1.593.62,25.13.858,27a1.218,1.218,0,0,0,1.894,1.02c8.359-5.6,26.391-13.743,28.874-14.931a4.075,4.075,0,0,0,2.2-2.564,4.067,4.067,0,0,0,2.2,2.564c2.486,1.188,20.514,9.335,28.876,14.931a1.214,1.214,0,0,0,1.889-1.02C136.536,389.432,138.037,367.175,136.74,365.754Z" transform="translate(3.939 -231.464)" fill="#fff"/>
              </g>
            </g>
          </g>
        </g>
        <path id="Path_1298" data-name="Path 1298" d="M77.486,422.551c-6.381-2.512-17.43-28.029-22.89-41.523,2.608,18.639,6.031,38.486,9.785,48.185,0,0,2.538,20.295,1.478,30.135H87.692c-3.331-11.017-9.173-27.733-7.383-30.263C82.509,425.974,77.486,422.551,77.486,422.551Z" transform="translate(-19.595 -179.742)" fill="#25424a"/>
        <path id="Path_1299" data-name="Path 1299" d="M136.56,380.5c-1.457-6.488-2.745-9.492-3.074-3.7-.9,15.873-26.234,61.933-26.234,61.933-1.881,10.737-10.468,27.419-13.147,32.442h29.546c-1.057-9.84,1.481-30.135,1.481-30.135C129.737,429.143,133.844,401.986,136.56,380.5Z" transform="translate(44.264 -191.569)" fill="#25424a"/>
        <path id="Path_1300" data-name="Path 1300" d="M119.871,461.622c-8.092-5.748-1.865-52.457-2.784-58.686-.879-5.978-8.124-22-8.691-23.254-.651,37.657,1.771,81.841,1.771,81.841.058.034.115.06.173.1Z" transform="translate(67.182 -181.918)" fill="#25424a"/>
      </g>
      <path id="Path_1301" data-name="Path 1301" d="M71.2,364.982s-.175,4.83.863,6.287c0,0,2.695-7.475,2.9-11.418s2.7-24.067,5.811-24.894,22.443,4.354,28.442,4.354,15.755.207,19.28-1.656,26.351-6.02,29.567-15.355c0,0-7.943-1.248-11.493-4.982a47.91,47.91,0,0,0,11.493,0s-13.589-5.811-17.945-9.131-38.18-10.58-45.027-6.844-21.833,11.41-22.456,19.921c0,0-7.632,13.28-7.632,18.673s2.705,21.339,2.705,21.339S70.549,363.676,71.2,364.982Z" transform="translate(38.455)" fill="#582e17"/>
      <path id="Path_1302" data-name="Path 1302" d="M93.4,315.481s3.736,13.694,5.6,19.089,4.552,17.223,4.351,20.546c0,0,2.582-8.419,4.3-9.916,0,0,1.237-29.509-1.227-34.9Z" transform="translate(84.346 16.154)" fill="#411f0d"/>
      <path id="Path_1303" data-name="Path 1303" d="M158.07,315.389s-13.589-5.811-17.945-9.131c-1.693-1.285-7.815-3.163-15.073-4.764a40.921,40.921,0,0,1,5.11,4.558A107.64,107.64,0,0,1,141.992,320.7c-2.077,2.826-12.038,7.765-17.848,9.631s-36.932-3.736-36.932-3.736c-5.188-5.6-13.074-5.895-13.074-5.895,2.263,0,6.227,3.82,6.227,3.82-5.186,5.186-7.807,26.558-7.807,26.558-4.487-2.077-6.1-13.071-6.1-13.071-1.036-2.075,5.416-17.307,5.416-17.307h0c-1.931,3.527-6.868,12.966-6.868,17.307,0,5.392,2.705,21.339,2.705,21.339s2.833,2.4,3.488,3.707c0,0-.175,4.83.863,6.287,0,0,2.695-7.475,2.9-11.418s2.7-24.067,5.811-24.894,22.443,4.354,28.442,4.354,15.755.207,19.28-1.656,26.351-6.02,29.567-15.355c0,0-7.943-1.248-11.493-4.982A47.91,47.91,0,0,0,158.07,315.389Z" transform="translate(38.455 1.928)" fill="#411f0d"/>
    </g>
  </g>
</svg>
