<svg fill="white" xmlns="http://www.w3.org/2000/svg" xmlns:xlink="http://www.w3.org/1999/xlink"  width="136.07" height="68.82" viewBox="0 0 268.787 135.35">
  <defs>
    <linearGradient id="linear-gradient" x1="0.5" x2="0.5" y2="1" gradientUnits="objectBoundingBox">
      <stop offset="0" stop-color="#f0603a"/>
      <stop offset="1" stop-color="#ec4b36"/>
    </linearGradient>
  </defs>
  <g id="Group_575" data-name="Group 575" transform="translate(-137.61 -124.762)">
    <path id="Path_1767" data-name="Path 1767" d="M156.913,124.762h42.614V260H156.913Z" transform="translate(14.375 0)" fill-rule="evenodd" fill="url(#linear-gradient)"/>
    <g id="PRO" transform="translate(138.18 160.432)" style="mix-blend-mode: normal;isolation: isolate">
      <g id="Group_572" data-name="Group 572" style="mix-blend-mode: normal;isolation: isolate">
        <path id="Path_1768" data-name="Path 1768" d="M169.594,160.392a10.294,10.294,0,0,1-1.7,2.858,10.739,10.739,0,0,1-2.455,2.13,15.026,15.026,0,0,1-2.858,1.429,17.6,17.6,0,0,1-3.236.81q-1.725.27-3.477.4t-3.425.134h-2.912v5.07c0,.612.007,1.178.026,1.7s.026,1.087.026,1.7c.037,1.151.073,2.139.108,2.968a3.943,3.943,0,0,0,.593,2.048,4.563,4.563,0,0,0,1.673,1.4,7.841,7.841,0,0,0,3.451.808v.539H138.153v-.539a14.934,14.934,0,0,0,2.587-.647,4.2,4.2,0,0,0,1.942-1.293,2.456,2.456,0,0,0,.431-.972,10.17,10.17,0,0,0,.242-1.457c.054-.539.1-1.113.136-1.725s.052-1.2.052-1.78q0-.754.028-2.048t.054-2.832q.026-1.539.026-3.154V154.3q0-.971-.026-1.968c-.019-.665-.054-1.295-.108-1.888a10.137,10.137,0,0,0-.27-1.617,2.274,2.274,0,0,0-.511-1.052,4.052,4.052,0,0,0-2.076-1.16q-1.269-.3-2.723-.511v-.539h1.295q1.023,0,2.4-.028c.918-.017,1.914-.028,2.994-.028s2.148-.009,3.208-.026,2.059-.026,2.992-.026h2.427a50.4,50.4,0,0,1,6.311.351,14.283,14.283,0,0,1,5.176,1.7,10.985,10.985,0,0,1,3.938,3.667,9.967,9.967,0,0,1,1.565,5.609A9.658,9.658,0,0,1,169.594,160.392Zm-6.769-9.439a9.793,9.793,0,0,0-6.93-4.475,20.679,20.679,0,0,0-3.02-.216,14.325,14.325,0,0,0-1.752.082q-.623.081-1,.134a3.628,3.628,0,0,1-.134.567,3.661,3.661,0,0,0-.134.619c-.037.251-.072.6-.108,1.052s-.072,1.087-.106,1.914q-.055,1.889-.082,4.583t-.026,5.286v6.9q2.209,0,4.152-.136a13.512,13.512,0,0,0,3.613-.728,10.093,10.093,0,0,0,5.285-3.91,10.721,10.721,0,0,0,1.834-6.12A9.912,9.912,0,0,0,162.825,150.953Z" transform="translate(-137.937 -145.023)" fill="#1a1818"/>
        <path id="Path_1769" data-name="Path 1769" d="M188.054,184.368q-.487-.484-.7-.728t-.487-.565a10.825,10.825,0,0,1-.673-.944q-.4-.62-1.267-1.862-1.026-1.507-1.806-2.723t-1.593-2.4q-.809-1.185-1.752-2.4t-2.238-2.723a22.132,22.132,0,0,0-2.345-2.319,5.813,5.813,0,0,0-2.671-1.349,8.281,8.281,0,0,0-1.563-.215q-.487,0-1.24-.056v6.1q0,2.588.054,4.369.052,1.725.108,2.964a3.928,3.928,0,0,0,.591,2.05,4.774,4.774,0,0,0,1.673,1.429,7.594,7.594,0,0,0,3.451.836v.539H158.338v-.539a14.893,14.893,0,0,0,2.587-.647,4.2,4.2,0,0,0,1.942-1.293,2.455,2.455,0,0,0,.433-.972,10.427,10.427,0,0,0,.242-1.457c.054-.539.1-1.113.134-1.725s.054-1.2.054-1.78q0-.754.026-2.048c.019-.864.035-1.807.054-2.832s.028-2.076.028-3.154V154.276c0-.647-.01-1.3-.028-1.968s-.054-1.295-.106-1.888a10.342,10.342,0,0,0-.27-1.617,2.274,2.274,0,0,0-.513-1.052,4.072,4.072,0,0,0-1.806-1.16,18.081,18.081,0,0,0-2.455-.511v-.539h2.212q1.832,0,4.152-.028t4.637-.028h3.776q3.612,0,6.417.216a12.835,12.835,0,0,1,5.124,1.457,10.375,10.375,0,0,1,3.828,3.371,9.289,9.289,0,0,1,1.457,5.365,8.529,8.529,0,0,1-.728,3.587,9.547,9.547,0,0,1-1.942,2.8,11.774,11.774,0,0,1-2.832,2.076,21.785,21.785,0,0,1-3.4,1.457v.162a6.9,6.9,0,0,1,1.78,1.4,19.66,19.66,0,0,1,1.671,2.048q1.4,2.052,3.048,4.423t2.938,4.206a16.472,16.472,0,0,0,3.884,4.1,10.394,10.394,0,0,0,4.423,1.671v.539Zm-5.339-33.6a9.326,9.326,0,0,0-3.938-3.345,11.767,11.767,0,0,0-2.723-.862,16.124,16.124,0,0,0-2.994-.27c-.754,0-1.366.019-1.832.054s-.829.073-1.08.108c-.037.216-.072.4-.108.567a4.2,4.2,0,0,0-.08.619q-.029.377-.054,1.052c-.017.45-.045,1.087-.08,1.914q-.055,1.889-.082,4.261t-.026,4.585v5.932q2.211,0,4.126-.188a16.842,16.842,0,0,0,3.693-.783,9.906,9.906,0,0,0,2.966-1.455,8.39,8.39,0,0,0,3.182-4.585,10.367,10.367,0,0,0,.379-2.8A8.716,8.716,0,0,0,182.715,150.77Z" transform="translate(-122.745 -145.001)" fill="#1a1818"/>
        <path id="Path_1770" data-name="Path 1770" d="M220.351,172.873a20.044,20.044,0,0,1-4.395,6.363,19.4,19.4,0,0,1-6.473,4.152,21.836,21.836,0,0,1-15.611.028,19.435,19.435,0,0,1-6.419-4.044,19.067,19.067,0,0,1-4.341-6.256,19.779,19.779,0,0,1-1.591-8.008,19.987,19.987,0,0,1,1.671-8.333,18.755,18.755,0,0,1,4.5-6.256,19.809,19.809,0,0,1,6.633-3.936,23.345,23.345,0,0,1,8.01-1.375,20.062,20.062,0,0,1,8.225,1.617,18.7,18.7,0,0,1,6.174,4.341,19.056,19.056,0,0,1,3.884,6.283,20.879,20.879,0,0,1,1.347,7.443A19.556,19.556,0,0,1,220.351,172.873Zm-5.906-14.561a21.044,21.044,0,0,0-2.535-6.068,14.433,14.433,0,0,0-4.233-4.421,10.491,10.491,0,0,0-5.986-1.7,10.713,10.713,0,0,0-6.068,1.7,13.809,13.809,0,0,0-4.206,4.395,20.358,20.358,0,0,0-2.427,6.12,31.022,31.022,0,0,0-.782,6.93,28.567,28.567,0,0,0,.864,7.066,19.555,19.555,0,0,0,2.561,5.986,13.417,13.417,0,0,0,4.261,4.152,11.194,11.194,0,0,0,5.958,1.563,10.149,10.149,0,0,0,5.906-1.725,14.551,14.551,0,0,0,4.18-4.449,21.433,21.433,0,0,0,2.507-6.12,28.4,28.4,0,0,0,.836-6.8A27.308,27.308,0,0,0,214.445,158.311Z" transform="translate(-105.48 -145.207)" fill="#1a1818"/>
      </g>
    </g>
    <g id="IDEAS_TO_ACTION" data-name="IDEAS TO ACTION" transform="translate(219.633 251.24)" style="mix-blend-mode: normal;isolation: isolate">
      <g id="Group_573" data-name="Group 573" style="mix-blend-mode: normal;isolation: isolate">
        <path id="Path_1771" data-name="Path 1771" d="M184.623,205.966v-.119a2.494,2.494,0,0,0,.555-.157,1.174,1.174,0,0,0,.438-.311.507.507,0,0,0,.089-.2,2.776,2.776,0,0,0,.049-.311c.01-.12.019-.246.023-.377s.007-.262.007-.389q0-.168.005-.455c0-.19.007-.4.012-.626s.005-.461.005-.7v-3.456c0-.143-.005-.276-.017-.4a2.4,2.4,0,0,0-.054-.335.55.55,0,0,0-.106-.234.964.964,0,0,0-.413-.293,2.5,2.5,0,0,0-.555-.126v-.119h3.573v.119a3.276,3.276,0,0,0-.537.131.775.775,0,0,0-.443.384,1.163,1.163,0,0,0-.113.515c0,.208-.009.4-.017.586q0,.3-.005.591c-.005.2-.007.393-.007.591v4.006c0,.23.005.454.012.668a.856.856,0,0,0,.108.455.883.883,0,0,0,.454.311,2.575,2.575,0,0,0,.562.133v.119Z" transform="translate(-184.623 -197.178)" fill="#1a1818"/>
        <path id="Path_1772" data-name="Path 1772" d="M196.446,203.126a3.865,3.865,0,0,1-.586,1.172,3.475,3.475,0,0,1-.86.811,4.668,4.668,0,0,1-1.042.515,5.683,5.683,0,0,1-1.134.27,8.9,8.9,0,0,1-1.138.077h-4.363v-.119a2.113,2.113,0,0,0,.579-.157,1.094,1.094,0,0,0,.424-.286.413.413,0,0,0,.091-.2c.019-.1.038-.2.054-.325s.028-.246.035-.382.012-.267.012-.394c0-.112,0-.263.007-.455s.007-.4.012-.626.005-.461.005-.7v-3.456c0-.143-.005-.276-.017-.4a2.4,2.4,0,0,0-.054-.335.55.55,0,0,0-.108-.234.93.93,0,0,0-.431-.3,2.8,2.8,0,0,0-.56-.12v-.119c.333,0,.817,0,1.446-.007s1.391-.005,2.284-.005h.764c.263,0,.527.012.789.037a6.506,6.506,0,0,1,.79.119,4.029,4.029,0,0,1,.776.251,4.457,4.457,0,0,1,.944.55,3.677,3.677,0,0,1,.773.8,3.908,3.908,0,0,1,.525,1.064,4.407,4.407,0,0,1,.2,1.38A5.269,5.269,0,0,1,196.446,203.126Zm-1.471-2.9a4.377,4.377,0,0,0-.6-1.19,3.821,3.821,0,0,0-.909-.9,2.8,2.8,0,0,0-1.148-.478c-.159-.031-.333-.058-.525-.077a6.653,6.653,0,0,0-.707-.031c-.094,0-.2,0-.309.007s-.222.012-.33.024l-.3.03a1.141,1.141,0,0,0-.222.037c-.04.389-.065.928-.072,1.612s-.012,1.5-.012,2.451v1.4c0,.415,0,.754.012,1.017,0,.112.005.232.017.365s.026.258.042.382a1.633,1.633,0,0,0,.077.335.607.607,0,0,0,.127.222,1.1,1.1,0,0,0,.6.3,3.763,3.763,0,0,0,.689.066c.2,0,.4-.009.616-.03a2.938,2.938,0,0,0,.591-.113,3.179,3.179,0,0,0,1.931-1.441,5.057,5.057,0,0,0,.64-2.636A4.323,4.323,0,0,0,194.975,200.221Z" transform="translate(-182.612 -197.184)" fill="#1a1818"/>
        <path id="Path_1773" data-name="Path 1773" d="M200.479,205.966h-7.317v-.119a2.494,2.494,0,0,0,.555-.157,1.129,1.129,0,0,0,.426-.3.532.532,0,0,0,.1-.209c.023-.091.045-.2.065-.316a3.592,3.592,0,0,0,.042-.377c.009-.133.012-.262.012-.389,0-.112,0-.263.007-.455s.007-.4.01-.626.007-.461.007-.7v-3.025c0-.143,0-.291-.007-.443s-.01-.295-.023-.429a2.452,2.452,0,0,0-.059-.365.511.511,0,0,0-.115-.234.817.817,0,0,0-.382-.246c-.136-.035-.311-.068-.525-.1v-.119h6.6l.813,1.973-.119.059a5.821,5.821,0,0,0-1.818-1.626,2.808,2.808,0,0,0-.752-.167,10.432,10.432,0,0,0-1.34-.072c-.167,0-.34.005-.52.017a3.433,3.433,0,0,0-.389.042c-.016.127-.03.391-.042.789s-.017.862-.017,1.387v.766c0,.206,0,.377.005.508s.007.234.007.305v.131h.239c.119,0,.256,0,.412-.012s.312-.017.466-.03a2.631,2.631,0,0,0,.389-.052,2.141,2.141,0,0,0,.6-.229,1.305,1.305,0,0,0,.387-.345,1.7,1.7,0,0,0,.241-.473,5.639,5.639,0,0,0,.16-.6h.143v3.767h-.143a4.066,4.066,0,0,0-.293-.79,2.078,2.078,0,0,0-.412-.609,1.575,1.575,0,0,0-.461-.276,2.113,2.113,0,0,0-.628-.133l-.3-.017c-.08,0-.161-.005-.239-.005h-.55a3.468,3.468,0,0,0-.024.49v1.434c0,.127,0,.249.005.365s.007.215.007.293c.007.256.021.5.042.724a1.139,1.139,0,0,0,.136.508.756.756,0,0,0,.515.239,5.165,5.165,0,0,0,.886.072c.134,0,.307,0,.518-.012a6.13,6.13,0,0,0,.665-.059,2.631,2.631,0,0,0,.7-.185,2.472,2.472,0,0,0,.621-.389,3.883,3.883,0,0,0,.581-.616,8.11,8.11,0,0,0,.579-.879l.133.037Z" transform="translate(-178.264 -197.178)" fill="#1a1818"/>
        <path id="Path_1774" data-name="Path 1774" d="M203.225,206.038v-.119a1.55,1.55,0,0,0,.174-.024,1.413,1.413,0,0,0,.286-.084.847.847,0,0,0,.263-.168.366.366,0,0,0,.113-.276,1.6,1.6,0,0,0-.066-.352c-.044-.164-.1-.363-.185-.6s-.171-.5-.276-.782-.215-.586-.333-.9H200.02q-.178.455-.345.867t-.335.832a3.019,3.019,0,0,0-.251.909.357.357,0,0,0,.1.256.723.723,0,0,0,.244.167,1.359,1.359,0,0,0,.323.094c.117.021.227.038.33.056v.119h-2.547v-.131a1.346,1.346,0,0,0,.532-.167,1.228,1.228,0,0,0,.256-.18,2.428,2.428,0,0,0,.276-.394,8.706,8.706,0,0,0,.466-.921c.168-.375.356-.8.562-1.279l.64-1.476q.33-.759.652-1.532c.215-.513.417-.994.609-1.441l-.12-.262a1.961,1.961,0,0,0,.389-.227,2.366,2.366,0,0,0,.305-.276,2.4,2.4,0,0,0,.222-.276q.089-.131.136-.215h.1q.369.992.7,1.883c.223.595.436,1.165.64,1.717s.4,1.082.59,1.595.384,1.022.576,1.525c.087.248.169.454.244.616s.161.349.256.557a1.735,1.735,0,0,0,.108.167,1.459,1.459,0,0,0,.222.244,1.349,1.349,0,0,0,.34.222,1.244,1.244,0,0,0,.478.108v.143Zm-1.567-7.246c-.047.1-.117.267-.209.49s-.2.494-.34.813-.284.679-.448,1.082-.34.839-.532,1.31h2.978q-.2-.539-.413-1.076c-.14-.359-.276-.7-.407-1.035s-.251-.633-.358-.909S201.73,198.968,201.658,198.792Z" transform="translate(-175.008 -197.25)" fill="#1a1818"/>
        <path id="Path_1775" data-name="Path 1775" d="M208.7,204.7a2.333,2.333,0,0,1-.647.778,2.763,2.763,0,0,1-.986.478,4.82,4.82,0,0,1-1.256.155,6.125,6.125,0,0,1-1-.072,4.275,4.275,0,0,1-.694-.173,2.54,2.54,0,0,1-.412-.187.581.581,0,0,0-.173-.084c-.024,0-.077.049-.157.143s-.152.188-.215.276h-.108l-.035-2.38h.12a3.7,3.7,0,0,0,.274.628,5.442,5.442,0,0,0,.365.574,3.276,3.276,0,0,0,.419.473,2.17,2.17,0,0,0,.424.311,3.42,3.42,0,0,0,.537.215,2.07,2.07,0,0,0,.646.108,2.092,2.092,0,0,0,1.436-.485,1.655,1.655,0,0,0,.55-1.309,1.483,1.483,0,0,0-.106-.586,1.4,1.4,0,0,0-.293-.436,1.838,1.838,0,0,0-.436-.316,4.607,4.607,0,0,0-.539-.239c-.19-.072-.359-.133-.5-.181s-.277-.092-.4-.136-.251-.087-.384-.131-.288-.1-.471-.174a2.552,2.552,0,0,1-.6-.328,2.479,2.479,0,0,1-.5-.49,2.519,2.519,0,0,1-.345-.623,1.96,1.96,0,0,1-.133-.722,2.443,2.443,0,0,1,.236-1.113,2.316,2.316,0,0,1,.633-.776,2.666,2.666,0,0,1,.919-.461,3.955,3.955,0,0,1,1.094-.15,4.029,4.029,0,0,1,.921.091,3.668,3.668,0,0,1,.626.2,2.071,2.071,0,0,1,.37.2.844.844,0,0,0,.14.089c.023,0,.073-.047.148-.143s.145-.192.209-.286h.131v2.211h-.131a4.958,4.958,0,0,0-.37-.782,3.566,3.566,0,0,0-.527-.694,2.529,2.529,0,0,0-.682-.5,1.891,1.891,0,0,0-.848-.19,2.242,2.242,0,0,0-.7.108,1.628,1.628,0,0,0-.574.323,1.46,1.46,0,0,0-.382.532,1.784,1.784,0,0,0-.138.722,1.374,1.374,0,0,0,.382,1.017,2.717,2.717,0,0,0,.989.611c.159.063.309.119.447.166s.277.094.412.138.272.091.412.138.284.1.436.155a2.781,2.781,0,0,1,1.258.867,2.437,2.437,0,0,1,.215,2.444Z" transform="translate(-170.93 -197.235)" fill="#1a1818"/>
        <path id="Path_1776" data-name="Path 1776" d="M217.073,199.657c-.063-.143-.14-.293-.227-.448s-.178-.3-.269-.436-.181-.262-.269-.377a1.823,1.823,0,0,0-.229-.256,1.247,1.247,0,0,0-.544-.318,3.223,3.223,0,0,0-.747-.089c-.152,0-.283,0-.394-.005s-.223-.007-.335-.007h-.789c0,.2,0,.471-.005.813s-.007.7-.007,1.077v4.674c0,.232.007.454.017.665a.891.891,0,0,0,.113.448.905.905,0,0,0,.509.358,6.007,6.007,0,0,0,.591.145v.119h-3.885V205.9a3.651,3.651,0,0,0,.6-.12,1.23,1.23,0,0,0,.562-.394.407.407,0,0,0,.091-.2,2.73,2.73,0,0,0,.047-.311c.012-.117.021-.241.024-.377s.005-.267.005-.4c0-.112,0-.258.007-.441s.007-.387.012-.611.005-.454.005-.693V197.72h-.789c-.1,0-.215,0-.33.007s-.25.005-.4.005a2.69,2.69,0,0,0-.748.106,1.433,1.433,0,0,0-.543.335,1.73,1.73,0,0,0-.222.251c-.084.112-.171.234-.263.365a4.749,4.749,0,0,0-.262.426,2.558,2.558,0,0,0-.2.441l-.106-.037.358-2.27q.275.06.508.094a5.871,5.871,0,0,0,.677.049c.3.007.574.014.813.017s.469.005.693.005h2.272c.239,0,.471,0,.694-.005s.454-.007.693-.012.509-.005.813-.005a3.848,3.848,0,0,0,.653-.066c.171-.035.349-.082.53-.138l.384,2.331Z" transform="translate(-167.144 -197.23)" fill="#1a1818"/>
        <path id="Path_1777" data-name="Path 1777" d="M222.021,203.423a4.461,4.461,0,0,1-.975,1.411,4.292,4.292,0,0,1-1.434.919,4.851,4.851,0,0,1-3.461.007,4.3,4.3,0,0,1-1.422-.9,4.247,4.247,0,0,1-.963-1.387,4.726,4.726,0,0,1,.017-3.624,4.181,4.181,0,0,1,1-1.387,4.439,4.439,0,0,1,1.471-.872,5.206,5.206,0,0,1,1.776-.305,4.451,4.451,0,0,1,1.823.359,4.107,4.107,0,0,1,2.23,2.355,4.626,4.626,0,0,1,.3,1.65A4.339,4.339,0,0,1,222.021,203.423Zm-1.31-3.228a4.652,4.652,0,0,0-.562-1.345,3.194,3.194,0,0,0-.939-.981,2.325,2.325,0,0,0-1.326-.377,2.372,2.372,0,0,0-1.345.377,3.093,3.093,0,0,0-.933.974,4.534,4.534,0,0,0-.537,1.357,6.805,6.805,0,0,0-.174,1.535,6.338,6.338,0,0,0,.192,1.567,4.339,4.339,0,0,0,.569,1.328,2.972,2.972,0,0,0,.944.921,2.49,2.49,0,0,0,1.321.347,2.26,2.26,0,0,0,1.31-.384,3.255,3.255,0,0,0,.926-.986,4.781,4.781,0,0,0,.555-1.357,6.278,6.278,0,0,0,.187-1.507A6.024,6.024,0,0,0,220.711,200.2Z" transform="translate(-163.183 -197.23)" fill="#1a1818"/>
        <path id="Path_1778" data-name="Path 1778" d="M225.662,206.038v-.119a1.542,1.542,0,0,0,.173-.024,1.428,1.428,0,0,0,.288-.084.819.819,0,0,0,.262-.168.359.359,0,0,0,.113-.276,1.567,1.567,0,0,0-.065-.352c-.045-.164-.106-.363-.187-.6s-.171-.5-.274-.782-.215-.586-.335-.9h-3.181c-.119.3-.236.593-.347.867s-.223.553-.335.832a3.076,3.076,0,0,0-.251.909.359.359,0,0,0,.1.256.722.722,0,0,0,.244.167,1.358,1.358,0,0,0,.323.094c.115.021.225.038.328.056v.119h-2.546v-.131a1.338,1.338,0,0,0,.53-.167,1.263,1.263,0,0,0,.258-.18,2.679,2.679,0,0,0,.276-.394,8.708,8.708,0,0,0,.466-.921q.251-.563.562-1.279l.64-1.476q.327-.759.651-1.532c.215-.513.419-.994.611-1.441l-.12-.262a2.013,2.013,0,0,0,.389-.227,2.345,2.345,0,0,0,.3-.276,2.222,2.222,0,0,0,.222-.276c.061-.087.106-.159.138-.215h.1q.372.992.7,1.883c.223.595.436,1.165.64,1.717s.4,1.082.591,1.595.382,1.022.574,1.525a6.6,6.6,0,0,0,.246.616c.075.164.161.349.256.557a1.657,1.657,0,0,0,.328.412,1.415,1.415,0,0,0,.34.222,1.246,1.246,0,0,0,.48.108v.143Zm-1.567-7.246c-.047.1-.117.267-.209.49s-.206.494-.34.813-.286.679-.448,1.082-.342.839-.532,1.31h2.976c-.136-.359-.272-.719-.412-1.076s-.276-.7-.406-1.035-.251-.633-.359-.909S224.167,198.968,224.1,198.792Z" transform="translate(-158.3 -197.25)" fill="#1a1818"/>
        <path id="Path_1779" data-name="Path 1779" d="M233.421,200.209a4.077,4.077,0,0,0-.468-1.076,3.8,3.8,0,0,0-.735-.872,3.357,3.357,0,0,0-.956-.586,3,3,0,0,0-1.131-.215,2.9,2.9,0,0,0-1.471.37,3.383,3.383,0,0,0-1.082.981,4.663,4.663,0,0,0-.67,1.382,5.438,5.438,0,0,0-.234,1.582,5.178,5.178,0,0,0,.246,1.616,3.985,3.985,0,0,0,.7,1.309,3.367,3.367,0,0,0,1.1.879,3.175,3.175,0,0,0,1.436.323,2.991,2.991,0,0,0,1.165-.227,3.553,3.553,0,0,0,.968-.6,3.628,3.628,0,0,0,.717-.855,3.181,3.181,0,0,0,.4-1h.143l-.037,2.629h-.143a3.407,3.407,0,0,0-.3-.37c-.1-.112-.176-.168-.216-.168a1.078,1.078,0,0,0-.215.126,3.6,3.6,0,0,1-.55.276,5.2,5.2,0,0,1-.872.262,5.472,5.472,0,0,1-1.185.113,6,6,0,0,1-2.008-.316,4.336,4.336,0,0,1-1.525-.9,3.909,3.909,0,0,1-.963-1.387,4.62,4.62,0,0,1-.333-1.776,4.346,4.346,0,0,1,.03-.49,4.189,4.189,0,0,1,.106-.586,4.977,4.977,0,0,1,.216-.651,4.506,4.506,0,0,1,.352-.687,4.325,4.325,0,0,1,.621-.778,3.975,3.975,0,0,1,.872-.651,4.8,4.8,0,0,1,1.138-.448,5.559,5.559,0,0,1,1.422-.167,5.267,5.267,0,0,1,1.256.133,5.669,5.669,0,0,1,.9.286,3.309,3.309,0,0,1,.551.286,1.131,1.131,0,0,0,.215.133.21.21,0,0,0,.091-.054c.044-.037.091-.08.143-.133s.1-.112.162-.178.106-.138.154-.209h.133V200.2Z" transform="translate(-154.4 -197.255)" fill="#1a1818"/>
        <path id="Path_1780" data-name="Path 1780" d="M239.244,199.657c-.065-.143-.14-.293-.229-.448s-.176-.3-.269-.436-.181-.262-.269-.377a1.834,1.834,0,0,0-.227-.256,1.267,1.267,0,0,0-.544-.318,3.248,3.248,0,0,0-.747-.089c-.152,0-.284,0-.4-.005s-.222-.007-.333-.007h-.79c0,.2,0,.471-.005.813s-.005.7-.005,1.077v4.674c0,.232.005.454.017.665a.874.874,0,0,0,.113.448.9.9,0,0,0,.508.358c.22.065.417.112.591.145v.119h-3.885V205.9a3.672,3.672,0,0,0,.6-.12,1.239,1.239,0,0,0,.562-.394.392.392,0,0,0,.089-.2,2.708,2.708,0,0,0,.049-.311c.012-.117.019-.241.023-.377s.007-.267.007-.4c0-.112,0-.258.005-.441s.009-.387.012-.611.007-.454.007-.693V197.72h-.79c-.1,0-.213,0-.328.007s-.249.005-.4.005a2.686,2.686,0,0,0-.747.106,1.452,1.452,0,0,0-.544.335,1.838,1.838,0,0,0-.222.251c-.084.112-.171.234-.263.365s-.178.274-.262.426a2.546,2.546,0,0,0-.2.441l-.108-.037.359-2.27q.275.06.508.094a5.8,5.8,0,0,0,.675.049c.3.007.574.014.813.017s.471.005.694.005h2.27c.241,0,.471,0,.694-.005s.455-.007.693-.012.511-.005.815-.005a3.824,3.824,0,0,0,.651-.066c.171-.035.349-.082.532-.138l.382,2.331Z" transform="translate(-150.635 -197.23)" fill="#1a1818"/>
        <path id="Path_1781" data-name="Path 1781" d="M235.7,205.966v-.119a2.522,2.522,0,0,0,.555-.157,1.188,1.188,0,0,0,.438-.311.508.508,0,0,0,.089-.2,2.81,2.81,0,0,0,.047-.311c.012-.12.019-.246.024-.377s.005-.262.005-.389c0-.112,0-.263.007-.455s.007-.4.012-.626.005-.461.005-.7v-3.456c0-.143-.005-.276-.017-.4a2.4,2.4,0,0,0-.054-.335.55.55,0,0,0-.108-.234.958.958,0,0,0-.412-.293,2.491,2.491,0,0,0-.557-.126v-.119h3.575v.119a3.193,3.193,0,0,0-.537.131.775.775,0,0,0-.443.384,1.163,1.163,0,0,0-.113.515c0,.208-.01.4-.017.586,0,.2,0,.4-.007.591s-.005.393-.005.591v4.006c0,.23,0,.454.012.668a.859.859,0,0,0,.106.455.9.9,0,0,0,.455.311,2.551,2.551,0,0,0,.562.133v.119Z" transform="translate(-146.587 -197.178)" fill="#1a1818"/>
        <path id="Path_1782" data-name="Path 1782" d="M246.924,203.423a4.428,4.428,0,0,1-.974,1.411,4.292,4.292,0,0,1-1.434.919,4.851,4.851,0,0,1-3.461.007,4.327,4.327,0,0,1-1.424-.9,4.216,4.216,0,0,1-.961-1.387,4.7,4.7,0,0,1,.017-3.624,4.132,4.132,0,0,1,1-1.387,4.439,4.439,0,0,1,1.471-.872,5.2,5.2,0,0,1,1.776-.305,4.451,4.451,0,0,1,1.823.359,4.17,4.17,0,0,1,1.37.961,4.258,4.258,0,0,1,.86,1.394,4.626,4.626,0,0,1,.3,1.65A4.311,4.311,0,0,1,246.924,203.423Zm-1.309-3.228a4.65,4.65,0,0,0-.562-1.345,3.194,3.194,0,0,0-.939-.981,2.327,2.327,0,0,0-1.328-.377,2.38,2.38,0,0,0-1.345.377,3.088,3.088,0,0,0-.932.974,4.535,4.535,0,0,0-.537,1.357,6.807,6.807,0,0,0-.174,1.535,6.338,6.338,0,0,0,.192,1.567,4.337,4.337,0,0,0,.569,1.328,2.971,2.971,0,0,0,.944.921,2.49,2.49,0,0,0,1.321.347,2.251,2.251,0,0,0,1.309-.384,3.24,3.24,0,0,0,.928-.986,4.782,4.782,0,0,0,.555-1.357,6.276,6.276,0,0,0,.185-1.507A6.021,6.021,0,0,0,245.616,200.2Z" transform="translate(-144.638 -197.23)" fill="#1a1818"/>
        <path id="Path_1783" data-name="Path 1783" d="M252.891,197.705a1.06,1.06,0,0,0-.413.513,2.014,2.014,0,0,0-.106.663c-.017.325-.031.668-.049,1.035-.016.344-.03.747-.042,1.214s-.017.967-.017,1.5v.764c0,.281,0,.565.005.857s.007.579.007.867v.776a.105.105,0,0,1-.03.077.122.122,0,0,1-.091.031.324.324,0,0,1-.215-.12q-1.018-1.172-1.855-2.153l-1.595-1.87q-.762-.89-1.49-1.739t-1.541-1.757v5.044c0,.408.009.775.03,1.1a1.988,1.988,0,0,0,.148.729.862.862,0,0,0,.413.412,2.442,2.442,0,0,0,.771.2v.119h-2.942v-.119a2.4,2.4,0,0,0,.574-.15.949.949,0,0,0,.454-.377,1.649,1.649,0,0,0,.216-.741c.031-.326.054-.717.072-1.172q.024-.513.035-1.213t.012-1.5v-1.459c0-.161,0-.356-.012-.586a1.4,1.4,0,0,0-.166-.569,1.115,1.115,0,0,0-.312-.345,1.186,1.186,0,0,0-.387-.18,3.391,3.391,0,0,0-.4-.079v-.119h2.427l5.667,6.623v-4.065c0-.318,0-.623-.01-.914a2.151,2.151,0,0,0-.108-.687,1.1,1.1,0,0,0-.424-.544,2.109,2.109,0,0,0-.879-.293v-.119H253.6v.119A1.79,1.79,0,0,0,252.891,197.705Z" transform="translate(-140.494 -197.178)" fill="#1a1818"/>
      </g>
    </g>
    <g id="BACKERS" transform="translate(137.61 205.145)" style="mix-blend-mode: normal;isolation: isolate">
      <g id="Group_574" data-name="Group 574" style="mix-blend-mode: normal;isolation: isolate">
        <path id="Path_1784" data-name="Path 1784" d="M171.8,203.011a9.84,9.84,0,0,1-1.565,2.75,10.9,10.9,0,0,1-2.156,2.022,10.2,10.2,0,0,1-2.375,1.268,16.234,16.234,0,0,1-4.583.916q-2.536.162-4.908.162H137.61v-.539a11.977,11.977,0,0,0,2.561-.7,5.08,5.08,0,0,0,1.97-1.349,2.467,2.467,0,0,0,.431-.944c.108-.413.206-.89.3-1.429a16.8,16.8,0,0,0,.188-1.7c.035-.593.054-1.176.054-1.753q0-.754.026-2.048c.019-.864.035-1.807.054-2.832s.028-2.076.028-3.154v-8.361q0-1.186-.028-2.427c-.019-.825-.028-1.78-.028-2.858q0-.968-.052-1.968t-.188-1.914a15.88,15.88,0,0,0-.325-1.645,2.309,2.309,0,0,0-.513-1.052,4.335,4.335,0,0,0-1.617-1.158,9.962,9.962,0,0,0-2.265-.459V171.3h18.174a30.156,30.156,0,0,1,3.91.243,16.092,16.092,0,0,1,3.587.89,10.7,10.7,0,0,1,4.529,3.128,7.975,7.975,0,0,1,1.78,5.339,7.569,7.569,0,0,1-2.293,5.744,11.893,11.893,0,0,1-5.958,2.938v.216a15.392,15.392,0,0,1,3.83.944,11.9,11.9,0,0,1,3.369,1.968,9.641,9.641,0,0,1,2.374,2.94,8.205,8.205,0,0,1,.888,3.856A9.857,9.857,0,0,1,171.8,203.011Zm-9.2-26.912a7.953,7.953,0,0,0-3.425-3.02,15.356,15.356,0,0,0-6.2-1.078,17.747,17.747,0,0,0-2.048.106,7.491,7.491,0,0,0-1.4.27c-.037.216-.072.413-.108.593a5.145,5.145,0,0,0-.08.673q-.029.406-.054,1c-.017.4-.045.918-.08,1.563q-.055,1.889-.082,4.154t-.026,4.315v5.176h3.02q1.24,0,2-.054,4.852-.27,7.361-2.75a8.3,8.3,0,0,0,2.509-6.148A8.57,8.57,0,0,0,162.606,176.1Zm2.966,21.06a9.654,9.654,0,0,0-1.4-2.535,9.218,9.218,0,0,0-2.1-2,10.555,10.555,0,0,0-2.669-1.321,12.585,12.585,0,0,0-2.347-.513,24.139,24.139,0,0,0-2.723-.134H149.1V197.4q0,1.51.026,2.778t.028,2.184q.052,2.049.188,3.371a4.278,4.278,0,0,0,.782,2.183,3.645,3.645,0,0,0,1.457,1,7.561,7.561,0,0,0,2.8.4,28.959,28.959,0,0,0,3.4-.216,10.01,10.01,0,0,0,3.561-1.132,8.934,8.934,0,0,0,3.505-3.154,8.67,8.67,0,0,0,1.24-4.719A8.337,8.337,0,0,0,165.572,197.159Z" transform="translate(-137.61 -170.489)" fill="#1a1818"/>
        <path id="Path_1785" data-name="Path 1785" d="M184.115,210.451v-.539a6.528,6.528,0,0,0,.782-.108,6.378,6.378,0,0,0,1.295-.379,3.736,3.736,0,0,0,1.186-.754,1.634,1.634,0,0,0,.511-1.24,6.994,6.994,0,0,0-.3-1.591q-.3-1.1-.836-2.7t-1.24-3.533q-.7-1.939-1.509-4.044H169.662q-.811,2.052-1.565,3.91t-1.511,3.749a13.661,13.661,0,0,0-1.132,4.1,1.62,1.62,0,0,0,.431,1.158,3.327,3.327,0,0,0,1.106.755,6.141,6.141,0,0,0,1.457.431q.783.136,1.483.244v.539H158.444v-.593a5.978,5.978,0,0,0,2.4-.755,5.309,5.309,0,0,0,1.16-.81,11.75,11.75,0,0,0,1.24-1.78,39.065,39.065,0,0,0,2.1-4.152q1.133-2.533,2.537-5.771t2.884-6.659q1.484-3.426,2.94-6.9t2.75-6.5l-.539-1.185a8.8,8.8,0,0,0,1.753-1.026,10.385,10.385,0,0,0,1.375-1.24,11.1,11.1,0,0,0,1-1.24c.27-.394.476-.719.619-.97h.433q1.67,4.478,3.181,8.493t2.886,7.739q1.377,3.721,2.669,7.2t2.589,6.876c.4,1.115.762,2.041,1.106,2.778s.728,1.572,1.158,2.507a7.031,7.031,0,0,0,.487.755,6.692,6.692,0,0,0,1,1.1,6.127,6.127,0,0,0,1.537,1,5.576,5.576,0,0,0,2.158.485v.647Zm-7.066-32.682q-.322.7-.944,2.211t-1.535,3.667q-.919,2.156-2.024,4.88l-2.4,5.906h13.429q-.919-2.426-1.862-4.854t-1.834-4.665q-.89-2.238-1.617-4.1T177.049,177.77Z" transform="translate(-122.095 -170.812)" fill="#1a1818"/>
        <path id="Path_1786" data-name="Path 1786" d="M219.11,184.156a18.233,18.233,0,0,0-2.1-4.854,17.229,17.229,0,0,0-3.317-3.936,15.124,15.124,0,0,0-4.315-2.643,13.455,13.455,0,0,0-5.1-.972,13.085,13.085,0,0,0-6.633,1.673,15.289,15.289,0,0,0-4.88,4.423,21.058,21.058,0,0,0-3.02,6.229,24.545,24.545,0,0,0-1.052,7.146A23.356,23.356,0,0,0,189.8,198.5a18.022,18.022,0,0,0,3.154,5.906,14.966,14.966,0,0,0,4.962,3.964,14.253,14.253,0,0,0,6.471,1.457,13.532,13.532,0,0,0,5.259-1.024,15.92,15.92,0,0,0,4.369-2.7,16.277,16.277,0,0,0,3.235-3.856,14.335,14.335,0,0,0,1.808-4.5h.647l-.162,11.864h-.647a16.139,16.139,0,0,0-1.349-1.671q-.7-.756-.97-.755a4.71,4.71,0,0,0-.97.567,15.869,15.869,0,0,1-2.481,1.24,23.715,23.715,0,0,1-3.938,1.186,25,25,0,0,1-5.339.511,27.063,27.063,0,0,1-9.06-1.429,19.609,19.609,0,0,1-6.876-4.044,17.567,17.567,0,0,1-4.343-6.256,20.7,20.7,0,0,1-1.509-8.008,20.468,20.468,0,0,1,.134-2.211,19.335,19.335,0,0,1,.487-2.643,21.864,21.864,0,0,1,.97-2.94,20.182,20.182,0,0,1,1.591-3.1,19.275,19.275,0,0,1,2.8-3.507,17.827,17.827,0,0,1,3.938-2.938,21.92,21.92,0,0,1,5.122-2.022,25.1,25.1,0,0,1,6.417-.755,23.988,23.988,0,0,1,5.663.593,25.642,25.642,0,0,1,4.044,1.295,15.18,15.18,0,0,1,2.483,1.295,4.66,4.66,0,0,0,.97.593.948.948,0,0,0,.4-.242q.3-.243.647-.593c.234-.234.475-.5.728-.81a11.689,11.689,0,0,0,.7-.944h.593V184.1Z" transform="translate(-104.508 -170.835)" fill="#1a1818"/>
        <path id="Path_1787" data-name="Path 1787" d="M235.447,210.129a3.836,3.836,0,0,1-.485-.3,3.337,3.337,0,0,1-.593-.567q-3.452-3.991-6.553-7.577t-6.443-7.253a17.352,17.352,0,0,0-1.916-1.942,1.6,1.6,0,0,0-.89-.379.675.675,0,0,0-.567.188,2.975,2.975,0,0,0-.3.621v5.339q0,2.481.054,4.261.055,1.565.216,2.912a4.161,4.161,0,0,0,.7,2.05,3.174,3.174,0,0,0,1.024.916,7.031,7.031,0,0,0,1.4.621,11.624,11.624,0,0,0,1.483.377q.728.136,1.267.19v.539H206.541v-.539a15.054,15.054,0,0,0,2.587-.647,4.264,4.264,0,0,0,1.888-1.186,2.467,2.467,0,0,0,.433-.972,10.156,10.156,0,0,0,.243-1.483c.054-.557.089-1.15.108-1.78s.026-1.23.026-1.808q0-.754.026-2.048t.028-2.8V180.035q0-2.049-.134-3.774a4.663,4.663,0,0,0-.729-2.481,4.534,4.534,0,0,0-1.834-1.349,9.585,9.585,0,0,0-2.481-.593V171.3h16.719v.539q-1.026.107-2,.3a3.844,3.844,0,0,0-1.726.808,4.66,4.66,0,0,0-1.268,1.862,10.148,10.148,0,0,0-.565,3.505c-.037.829-.063,1.6-.08,2.319s-.028,1.548-.028,2.481v8.359a21.072,21.072,0,0,0,2.615-2.022q1.646-1.429,3.453-3.208t3.585-3.667q1.782-1.887,3.074-3.289a20.61,20.61,0,0,0,1.645-2.212,3.892,3.892,0,0,0,.728-2.048,2.5,2.5,0,0,0-1.078-2.266,6.239,6.239,0,0,0-2.481-.916V171.3h14.455v.539a11.326,11.326,0,0,0-5.555,2.319,64.353,64.353,0,0,0-5.717,4.746q-1.133,1.026-2.319,2.211t-2.347,2.375q-1.159,1.186-2.265,2.291t-2.022,2.078q.429.539,1.994,2.345t3.721,4.234q2.156,2.426,4.611,5.176t4.719,5.285a13.519,13.519,0,0,0,1.241,1.295c.466.431.918.818,1.349,1.16s.81.639,1.132.89a3.036,3.036,0,0,0,.647.431,14.018,14.018,0,0,0,1.914.539,18.742,18.742,0,0,0,2.723.379v.539Z" transform="translate(-86.278 -170.489)" fill="#1a1818"/>
        <path id="Path_1788" data-name="Path 1788" d="M263.163,210.129H230.157v-.539a10.952,10.952,0,0,0,2.507-.7,5.145,5.145,0,0,0,1.916-1.349,2.467,2.467,0,0,0,.431-.944c.108-.413.206-.89.3-1.429a16.8,16.8,0,0,0,.188-1.7c.035-.593.054-1.176.054-1.753q0-.754.028-2.048t.052-2.832q.029-1.536.028-3.154V180.035c0-.646-.009-1.312-.028-1.994s-.052-1.331-.106-1.942a10.181,10.181,0,0,0-.27-1.645,2.309,2.309,0,0,0-.511-1.052,3.673,3.673,0,0,0-1.727-1.1,22.024,22.024,0,0,0-2.373-.459V171.3h29.77l3.667,8.9-.539.27q-4.368-5.449-8.2-7.335a13.045,13.045,0,0,0-3.4-.755,47.589,47.589,0,0,0-6.04-.324q-1.133,0-2.347.082a15.3,15.3,0,0,0-1.752.188q-.11.864-.188,3.559t-.082,6.256v3.451q0,1.4.028,2.293t.026,1.375v.593h1.08q.809,0,1.86-.054t2.1-.134a12.119,12.119,0,0,0,1.752-.243,9.384,9.384,0,0,0,2.7-1.024,5.938,5.938,0,0,0,1.753-1.565,7.59,7.59,0,0,0,1.078-2.13,25.508,25.508,0,0,0,.729-2.723h.647v16.988h-.647a18.686,18.686,0,0,0-1.321-3.559,9.493,9.493,0,0,0-1.862-2.75,7.117,7.117,0,0,0-2.076-1.24,9.3,9.3,0,0,0-2.832-.595q-.809-.052-1.349-.08t-1.078-.026h-2.481a16.9,16.9,0,0,0-.108,2.211V199.4c0,.576.009,1.125.028,1.645s.026.963.026,1.322q.052,1.725.188,3.263a5.154,5.154,0,0,0,.621,2.291,3.391,3.391,0,0,0,2.319,1.08,23.109,23.109,0,0,0,3.992.323q.916,0,2.345-.054t2.994-.269a11.787,11.787,0,0,0,3.181-.837,11.14,11.14,0,0,0,2.805-1.752,17.821,17.821,0,0,0,2.615-2.778,36.96,36.96,0,0,0,2.615-3.964l.593.162Z" transform="translate(-68.691 -170.489)" fill="#1a1818"/>
        <path id="Path_1789" data-name="Path 1789" d="M281.851,210.152q-.487-.487-.7-.729c-.143-.162-.305-.349-.485-.565a10.467,10.467,0,0,1-.673-.944q-.406-.62-1.268-1.86-1.026-1.51-1.806-2.723t-1.591-2.4q-.809-1.186-1.753-2.4t-2.237-2.723a22.175,22.175,0,0,0-2.347-2.32,5.808,5.808,0,0,0-2.669-1.349,8.314,8.314,0,0,0-1.565-.215q-.484,0-1.241-.054v6.094q0,2.588.054,4.369.052,1.725.108,2.964a3.944,3.944,0,0,0,.593,2.05,4.769,4.769,0,0,0,1.671,1.431,7.616,7.616,0,0,0,3.451.836v.539H252.135v-.539a15.071,15.071,0,0,0,2.589-.647,4.205,4.205,0,0,0,1.94-1.295,2.455,2.455,0,0,0,.433-.972,10.188,10.188,0,0,0,.242-1.455c.054-.539.1-1.115.134-1.727s.054-1.2.054-1.78q0-.754.028-2.048t.052-2.832q.029-1.536.028-3.154V180.058q0-.968-.028-1.968T257.5,176.2a10.141,10.141,0,0,0-.27-1.617,2.3,2.3,0,0,0-.511-1.052,4.077,4.077,0,0,0-1.807-1.16,18.351,18.351,0,0,0-2.455-.511v-.539h2.212q1.832,0,4.152-.028t4.637-.026h3.776q3.612,0,6.419.216a12.8,12.8,0,0,1,5.122,1.455,10.38,10.38,0,0,1,3.83,3.371,9.3,9.3,0,0,1,1.457,5.365,8.523,8.523,0,0,1-.729,3.587,9.513,9.513,0,0,1-1.942,2.8,11.8,11.8,0,0,1-2.83,2.076,21.712,21.712,0,0,1-3.4,1.457v.162a6.9,6.9,0,0,1,1.78,1.4,19.62,19.62,0,0,1,1.671,2.048q1.4,2.052,3.048,4.423t2.94,4.206a16.5,16.5,0,0,0,3.882,4.1,10.4,10.4,0,0,0,4.423,1.673v.539Zm-5.339-33.6a9.332,9.332,0,0,0-3.936-3.345,11.824,11.824,0,0,0-2.723-.862,16.155,16.155,0,0,0-2.994-.27c-.755,0-1.366.019-1.834.054s-.829.073-1.078.108c-.037.216-.073.4-.108.567a4.418,4.418,0,0,0-.082.619c-.017.251-.037.6-.052,1.052s-.047,1.087-.082,1.914q-.055,1.889-.08,4.261t-.028,4.585v5.932q2.211,0,4.126-.188a16.876,16.876,0,0,0,3.7-.782,9.9,9.9,0,0,0,2.964-1.457,8.5,8.5,0,0,0,2.024-2.076,8.615,8.615,0,0,0,1.158-2.509,10.356,10.356,0,0,0,.379-2.8A8.705,8.705,0,0,0,276.512,176.553Z" transform="translate(-52.324 -170.513)" fill="#1a1818"/>
        <path id="Path_1790" data-name="Path 1790" d="M302.012,204.4A10.507,10.507,0,0,1,299.1,207.9a12.36,12.36,0,0,1-4.449,2.156,21.62,21.62,0,0,1-5.663.7,27.2,27.2,0,0,1-4.531-.324,17.769,17.769,0,0,1-3.128-.782,11.165,11.165,0,0,1-1.86-.836,2.4,2.4,0,0,0-.782-.377c-.108,0-.342.215-.7.647s-.684.844-.97,1.24h-.487l-.161-10.732h.539a16.97,16.97,0,0,0,1.241,2.83,23.329,23.329,0,0,0,1.645,2.589,14.485,14.485,0,0,0,1.888,2.13,9.278,9.278,0,0,0,1.914,1.4,15.347,15.347,0,0,0,2.427.97,10.119,10.119,0,0,0,9.383-1.7,7.464,7.464,0,0,0,2.481-5.9,6.684,6.684,0,0,0-.485-2.643,6.2,6.2,0,0,0-1.321-1.968,8.053,8.053,0,0,0-1.968-1.429,21.251,21.251,0,0,0-2.429-1.078q-1.293-.487-2.265-.81c-.646-.216-1.249-.422-1.806-.621s-1.132-.394-1.725-.593-1.3-.459-2.13-.782a11.65,11.65,0,0,1-2.7-1.483A10.933,10.933,0,0,1,278.8,188.3a11.22,11.22,0,0,1-1.565-2.8,8.962,8.962,0,0,1-.593-3.263,10.986,10.986,0,0,1,1.064-5.016,10.256,10.256,0,0,1,2.858-3.505,12.094,12.094,0,0,1,4.142-2.076,17.75,17.75,0,0,1,4.934-.675,18.5,18.5,0,0,1,4.152.4,16.645,16.645,0,0,1,2.832.892,9.718,9.718,0,0,1,1.671.888,3.637,3.637,0,0,0,.621.4c.108,0,.331-.215.673-.647s.656-.862.944-1.293h.593v9.976h-.593a21.749,21.749,0,0,0-1.671-3.533,15.967,15.967,0,0,0-2.375-3.128,11.463,11.463,0,0,0-3.072-2.237,8.439,8.439,0,0,0-3.83-.864,10.094,10.094,0,0,0-3.154.485,7.332,7.332,0,0,0-2.589,1.457,6.686,6.686,0,0,0-1.725,2.4,8.135,8.135,0,0,0-.621,3.264,6.2,6.2,0,0,0,1.722,4.583,12.227,12.227,0,0,0,4.466,2.751q1.073.432,2.015.754t1.856.621q.913.3,1.856.619t1.964.7a12.55,12.55,0,0,1,5.676,3.91,10.975,10.975,0,0,1,.965,11.03Z" transform="translate(-34.277 -170.743)" fill="#1a1818"/>
      </g>
    </g>
  </g>
</svg>
