<svg xmlns="http://www.w3.org/2000/svg" width="250.419" height="208.874" viewBox="0 0 250.419 208.874">
  <g id="Group_215" data-name="Group 215" transform="translate(-217.318 -256.891)">
    <path id="Path_1220" data-name="Path 1220" d="M336.651,256.968c3.919-.114,7.85-.086,11.768-.009a28.5,28.5,0,0,0,4.128.289,125.326,125.326,0,0,1,25.428,4.866A123.493,123.493,0,0,1,422.064,286.4c1.761,1.475,3.521,2.489,4.993,4.214s2.8,3.534,4.242,5.273c1.847,2.316,4.119,4.185,6.054,6.359,1.011,1.227,2.129,2.349,3.108,3.6A111.325,111.325,0,0,1,451.7,322.922a129.258,129.258,0,0,1,13.223,36.1c.68,2.542.9,5.145,1.44,7.71.178,2.126.5,4.227.746,6.343.1,1.189,0,2.317.188,3.5.318,1.894.086,3.8.388,5.7.118,3.073.007,6.166.042,9.242a11.524,11.524,0,0,1-.2,2.218c-.2,1.386.022,2.73-.223,4.119a24.305,24.305,0,0,0-.279,3.184,6.618,6.618,0,0,0-.258,1.917,137.937,137.937,0,0,1-6.718,28.3c-.655,2.012-1.557,3.935-2.228,5.94-1.166-.1-2.123-.791-3.28-1-2.968-.823-6.261.27-8.806,1.821a18.964,18.964,0,0,0-4.2,3.7,34.229,34.229,0,0,0-3.283,4.646c-1.249,2-2.25,4.3-3.747,6.124a4.067,4.067,0,0,1-2.806,1.472c-1.57.2-3.194-.9-4.242-1.961-2.676-3.013-2.422-6.782-4.542-10.081-2.641-4.068-8.193-5.864-11.174-9.843-4.23-5.209-5.781-12.1-7.6-18.4-1.557-5.838-3.769-11.381-8.162-15.687a14.974,14.974,0,0,0-7.278-4.452,17.361,17.361,0,0,0-4.869-.286,16.625,16.625,0,0,1-.082,2.7c-.232,1.592-1.557,3-2.666,4.09-3.579,3.092-7.6,3.559-11.67,5.5-2.654,1.277-4.917,3.277-5.622,6.242-2.2-.022-4.22-1.275-6.423-1.84a8.478,8.478,0,0,0-3.912-.442c-.782,2-.178,3.829-.474,5.879a9.631,9.631,0,0,1-1.386,2.193,23.571,23.571,0,0,1-9.582,7.548,5.769,5.769,0,0,1-1.351.35,10.811,10.811,0,0,0-3.41-3.645,3.719,3.719,0,0,0-.651-1.954c-.734-.766-2.024-.852-2.8-1.662-3.419-3.235-5.848-7.767-8.228-11.794-.149-.324-.505-.781-.235-1.122a17.03,17.03,0,0,1,2.571-3.143c1.1-1.163,2.542-1.541,3.55-2.816a8,8,0,0,0,1.033-2.463c.512-.763,1.2-1.22,1.446-2.158.121-.719.067-1.456.159-2.171.759-.864,1.678-1.386,2.088-2.549.334-.826.175-1.824.461-2.616,1.277-.839,2.5-1.4,3.2-2.866.68-1.557.619-3.48.82-5.155a21.7,21.7,0,0,0,14.775-6.245c3.9-3.719,6.388-8.333,8.311-13.31.944-.27,2.075.038,3.057-.423a4.794,4.794,0,0,0,1.929-1.888A20.661,20.661,0,0,1,371,354.969c2.67-2.708,4.9-5.543,7.916-7.92a18.148,18.148,0,0,1,4.85,5.3,8.989,8.989,0,0,1,.648,2.247c.165.588.537,1.119.728,1.691a6.53,6.53,0,0,0-.239,1.84c-.156.331-.333.658-.458,1-.473,1.923,1.6,3.855,3.388,3.864.931-.607.887-2.069,1.233-3.01.331-.629.74-1.084.645-1.853a3.777,3.777,0,0,0-.849-1.993,23.6,23.6,0,0,1-1.131-2.364,60.968,60.968,0,0,0-3.969-6.7,25.514,25.514,0,0,1,4.875,1.354c1,.416,1.459,1.233,2.288,1.853.509.314,1.3.092,1.856.067.27,1.074.092,1.986,1.135,2.689.308,1,.391,2.12,1.351,2.733a5.963,5.963,0,0,0,3.715.569,1.176,1.176,0,0,0,.527-1.662,10.756,10.756,0,0,0-1.913-3.452c-.69-.794-1.669-.982-2.307-1.821-.7-.826-.594-2.015-1.449-2.682-1.071-.861-2.813-.865-4.1-1.351-2.523-.915-5.053-1.8-7.627-2.565a3.528,3.528,0,0,1-1.859-.937c-.512-.7-.614-1.57-1.275-2.212a4.037,4.037,0,0,0-2.908-1.516,3.716,3.716,0,0,0-3.067,2c-1.923,2.828-5.215,4-7.183,6.779-.184.188-.343.569-.623.607a4.185,4.185,0,0,0-1.913-2.037c-.956-3.807-3.188-6.537-5.206-9.785a6.566,6.566,0,0,1,2.189,1.042c.442.283.915.81,1.456.416,1-.613,2.031-.753,2.794-1.716,1.373-1.5.887-3.639,1.509-5.625-.448-.989-1.554-1.507-2.056-2.5-1.271-2.218-2.759-4.354-2.733-7.01.013-1.542-.979-2.587-1.668-3.858a11.764,11.764,0,0,1,.918-1.847,4.015,4.015,0,0,0,2.387-2.45,5.015,5.015,0,0,0,2.189-1.882c.531-.9,1.538-1.141,2.164-1.98.922-1.223,2.291-1.9,3.283-3.076,1.481-1.166,2.816-2.479,4.3-3.645-1.443.635-2.587,1.681-3.973,2.409-1.112.566-2,1.424-3.178,1.884-.985.4-1.614,1.243-2.65,1.545a6.242,6.242,0,0,0-2.324,1.468,5.13,5.13,0,0,0-2.393,1.046,4.442,4.442,0,0,1-2.335.956,16.032,16.032,0,0,0-7.31-1.63c-2.9-.26-5.4.168-7.916-1.6a10.022,10.022,0,0,0,2.609,1.827c-2.333.076-4.084-1.147-6.366-.8a3.107,3.107,0,0,0-1.732,1.137,4.76,4.76,0,0,1,3.963-.493c-.814.331-1.764.191-2.435.725a11.157,11.157,0,0,1,2.781.118,16.227,16.227,0,0,0-2.492,1.1,6.859,6.859,0,0,1-2.38,1.17c-.709.063-1.433.019-2.148.035a7.333,7.333,0,0,0,2.205.731,8.949,8.949,0,0,1-2.476-.032,8.488,8.488,0,0,1-1.764-1.014c.321.41.645.817.966,1.227-.079.21-.162.419-.245.633a5.408,5.408,0,0,0,2.47,1.023c-2.1.442-4.631,1.007-6.213,2.546-.337.277-.117.766-.448,1.077-.928,1.007-1.812,1.856-1.99,3.3a4.008,4.008,0,0,0,.941,2.412,3.649,3.649,0,0,1-.429-2.107,3.462,3.462,0,0,1,.753-1.392,4.458,4.458,0,0,0-.083,2.5c.273.763,1.011.972,1.659,1.341-.785-.645-1.341-1.058-1.023-2.205.553-1.31,2.132-2.215,3.34-2.847a7.766,7.766,0,0,0-1.958,2.714,4.382,4.382,0,0,0,.178,1.821,3.871,3.871,0,0,1,1.659-3,8.764,8.764,0,0,1-1.207,3.8c-.454.734-1.2,1.611-2.148,1.576-.982.057-1.516-.566-2.254-1.077a3.407,3.407,0,0,0,2.616,1.573,2.258,2.258,0,0,1-2.168.114c-.61-.27-.988-.982-1.4-1.494a10.916,10.916,0,0,0,.6,1.672q-.048.272-.1.544c1.668,1.455,3.664,1.382,5.6.5-.982,1.783-3.607.852-4.993,2.209a7.73,7.73,0,0,0-.756,1.392,5.873,5.873,0,0,1,1.3-1.169,6.381,6.381,0,0,1,2.587-.286,6.163,6.163,0,0,0-2.552,1.29c-.47.547-.156,1.227-.025,1.84.162-.53.038-1.007.61-1.284a6.267,6.267,0,0,1,2.466-.477c-.769.591-1.573,1-1.621,2.1.114,2.186-.654,4-.038,6.159a7.526,7.526,0,0,0,3.292,4.417l.267-.254.34-.216c.289.2.575.4.861.594a5.576,5.576,0,0,1-1.818-2.489,7.6,7.6,0,0,1,.578-5.174c-.063,1.373-.4,2.892.124,4.2.487,1.262,1.653,2.209,1.875,3.512a2.075,2.075,0,0,1-1.313,2.473c-1.3.528-2.323-.035-3.493-.528a3.321,3.321,0,0,0,2.854,1.421,14.975,14.975,0,0,0-4.319,1.185,2.963,2.963,0,0,0-1.757,1.659c-.2.919.744,1.509,1.3,2.075-.261-.633-.868-1.189-.08-1.738a8.535,8.535,0,0,1,3.989-.734c-.547.213-1.382.308-1.722.817-.267.709.753,1.268,1.182,1.681-.184-.455-.464-.839-.292-1.351a6.26,6.26,0,0,1,3.343-.836,5.224,5.224,0,0,0,3.839-1.647,3.765,3.765,0,0,0,.538-2.247,2.857,2.857,0,0,1-.178,2.625c-1.011,1.561-2.841,1.974-4.535,2.339a11.7,11.7,0,0,0,5.7-1.068,12.393,12.393,0,0,1-2.765,1.983,6.821,6.821,0,0,0,2.5-.369,4.563,4.563,0,0,1-1.618,1.2,14.038,14.038,0,0,1-1.675.112,5.794,5.794,0,0,0,3.343.216,36.066,36.066,0,0,1-8.825,8.994,2.6,2.6,0,0,1-1.351.572,16.319,16.319,0,0,0-3.839.919,13.789,13.789,0,0,0-2.857,1.923,13.256,13.256,0,0,0-4.287,4.277,12.332,12.332,0,0,0-1.068,3.207c-2.73.258-5.657-1.163-7.945-2.536-1.3-.7-2.184-1.878-3.458-2.59a12.642,12.642,0,0,0-4.57-1.8,4.8,4.8,0,0,0-4.436,1.624,14.571,14.571,0,0,0-2.717,5.977,6.169,6.169,0,0,1-2.609-.368,4.868,4.868,0,0,1-1.681-1.824,6.612,6.612,0,0,0,.944,2.291,4.038,4.038,0,0,1-2.005-1.939,10.96,10.96,0,0,1-.2-2.523,6.56,6.56,0,0,0-.1,3.845c.451,1.128,1.532,1.684,2.4,2.491A5.517,5.517,0,0,1,287.5,375a10.231,10.231,0,0,0,2.4,2.259,12.89,12.89,0,0,0,3.337,1.049,24.882,24.882,0,0,0,1.319,4.685,7.25,7.25,0,0,1,.425,1.57c-1.338.1-3.038.082-4.214.785a2.955,2.955,0,0,0-1.014,2.511c.353-.585.607-1.338,1.246-1.656a6.39,6.39,0,0,1,3.111-.327c-1.179.528-2.313,1.09-2.676,2.444,0,.88.728,1.316,1.284,1.875-.264-.6-.709-1.208-.216-1.837.839-1.065,2.574-1.443,3.842-1.7.906.368,1.5,1.849,1.551,2.79a11.67,11.67,0,0,0-4.611,1.262,4.572,4.572,0,0,0-1.948,3.127,5.6,5.6,0,0,1,4.36-2.886c-.642.4-1.328.754-1.935,1.2A5.839,5.839,0,0,0,292.245,395a8.061,8.061,0,0,1,2.031-2.323,9.352,9.352,0,0,1,3.718-1.2,4.755,4.755,0,0,1-1.637,3.21,6.576,6.576,0,0,0,2.088-1.9,6.958,6.958,0,0,1-1.735,3.658,16.688,16.688,0,0,0-5.816-1.02,6.044,6.044,0,0,0-4.119,2.082,7.825,7.825,0,0,1,2.291-1.115,9.219,9.219,0,0,1,3.454.032,12.472,12.472,0,0,0-3.858.788,5.677,5.677,0,0,0-2.536,2.847,5.431,5.431,0,0,1,3.162-2.285,9.456,9.456,0,0,1,5.117,1.131,16.06,16.06,0,0,0-6.111,1.443,2.981,2.981,0,0,0-1.7,2.921c.092.407-.079.849.439.947-.127-1.983,1.637-2.523,3.152-3.079a4.809,4.809,0,0,0-2.126,1.853,3.227,3.227,0,0,0,.477,2.975c.042-.954-.2-1.805.629-2.5,1.284-.963,3.388-.731,4.882-.54-1.3.213-2.6.184-3.582,1.189-.521.55-.394,1.348-.483,2.05.451-.565.725-1.2,1.481-1.392a7.167,7.167,0,0,1,3.324.261,9.468,9.468,0,0,0-2.726.683,11.6,11.6,0,0,1,4.068.248,30.015,30.015,0,0,0,8.111,1.853,8.1,8.1,0,0,0,6.067-2.3,13.776,13.776,0,0,0,2.38-3.794c-.686,2.18-1.408,4.312-3.471,5.568a10.711,10.711,0,0,1-4.325,1.271c2.765,0,5.831-.464,7.9-2.46,1.821-1.833,2.263-4.141,2.489-6.619a8.584,8.584,0,0,1,.505,2.838,10.25,10.25,0,0,1-1,3.156,8.741,8.741,0,0,0,1.773-5.066,10.541,10.541,0,0,0-1.649-5.034,7.506,7.506,0,0,0-.073-3.95,6.727,6.727,0,0,0-1.6-2.412c1.472-2.4,1.586-4.958,1.631-7.694.086.62.153,1.249.283,1.859a4.758,4.758,0,0,0,1.376,2.037c-.213-.579-.454-1.154-.626-1.748a5.833,5.833,0,0,1,.343-3.105,30.474,30.474,0,0,0,3.528,7.049,21.677,21.677,0,0,0,1.4,2.428c.515.648,1.154,1.23,1.611,1.919.223.33-.067.61-.2.906-1.338,2.171-2.39,4.459-3.537,6.728-.566,1.154-1.821,1.865-1.719,3.245a3.764,3.764,0,0,0,.744,1.9,5.675,5.675,0,0,0-1.211,2.234c-.079.954.782,1.91,1.147,2.765a40,40,0,0,0,2.736,5.2,17.62,17.62,0,0,1,1.452,3.5c.62,1.64,1.268,3.27,1.884,4.91.34.861.293,1.948.81,2.7A3.923,3.923,0,0,0,326.5,427c.124.737.086,1.818.61,2.386a12.541,12.541,0,0,0,3.734.14c-.009.829-1.026,1.4-1.5,2.024a198.073,198.073,0,0,0-13.462,17.641c-1.363-.057-2.663.321-4.024.3a45.292,45.292,0,0,0-14.288,4c-1.11.489-2.139,1.109-3.286,1.513-.721-2.616-1.675-5.209-2.524-7.79a14,14,0,0,0-1.065-2.749c-.814-.721-2.282-.664-3.3-.705a14.19,14.19,0,0,0-9.95,3.61,18.233,18.233,0,0,0-3.134,3.814,3.373,3.373,0,0,1-.921-.528,7.875,7.875,0,0,0-6.636-1.2,10.9,10.9,0,0,0-6.518,4.831,29.306,29.306,0,0,0-3.594,9.13,59.433,59.433,0,0,0-10.125,1.662,12.727,12.727,0,0,1-3.016.686,132.141,132.141,0,0,1-24.586-58.682,42.445,42.445,0,0,1-.683-5.405c-.194-1.221-.292-2.422-.384-3.652-.334-1.64-.1-3.28-.458-4.926-.114-3.906-.067-7.853-.048-11.762-.067-1.831.416-3.575.314-5.418.442-3.337.674-6.725,1.233-10.039a130.724,130.724,0,0,1,20.87-53.477,104.741,104.741,0,0,1,11.892-15.118c3.314-3.477,6.667-6.884,10.309-10.024a123.454,123.454,0,0,1,49.266-26.3c3.569-.963,7.179-1.716,10.811-2.368a81.6,81.6,0,0,1,8.9-1.106c1.9-.362,3.808-.174,5.714-.515Z" fill="#f05d3a"/>
    <path id="Path_1221" data-name="Path 1221" d="M510.793,416.508a9.558,9.558,0,0,1,1.621.88c-.006.538-.016,1.077-.019,1.615a17.673,17.673,0,0,1-1.6-2.495Z" transform="translate(-154.733 -84.157)" fill="#ef722a"/>
    <path id="Path_1222" data-name="Path 1222" d="M441.765,581.294a5.184,5.184,0,0,1,1.316,1.4c2.1,2.672,4.166,5.362,6.255,8.037.686.912.613,2.091,1.487,2.958a3.444,3.444,0,0,0,2.142.807,5.309,5.309,0,0,0,1.03,2.059,12.869,12.869,0,0,0,1.331.6c-2.17.238-3.372,1.582-5.145,2.635a5.254,5.254,0,0,0-1.932-2.9,3.763,3.763,0,0,0-.591-1.624,21.411,21.411,0,0,1-2.456-2.32c-1.189-1.681-1.748-3.855-2.5-5.762a11.885,11.885,0,0,1-.937-5.9Z" transform="translate(-118.3 -171.04)" fill="#ef722a"/>
  </g>
</svg>
