<svg fill="white" xmlns="http://www.w3.org/2000/svg" xmlns:xlink="http://www.w3.org/1999/xlink"  width="136.073" height="68.521" viewBox="0 0 136.073 68.521">
  <defs>
    <linearGradient id="linear-gradient" x1="0.5" x2="0.5" y2="1" gradientUnits="objectBoundingBox">
      <stop offset="0" stop-color="#f0603a"/>
      <stop offset="1" stop-color="#ec4b36"/>
    </linearGradient>
  </defs>
  <g id="Group_576" data-name="Group 576" transform="translate(-137.61 -124.762)">
    <path id="Path_1791" data-name="Path 1791" d="M156.913,124.762h21.573v68.466H156.913Z" transform="translate(-2.254)" fill-rule="evenodd" fill="url(#linear-gradient)"/>
    <g id="PRO" transform="translate(137.899 142.82)" style="mix-blend-mode: normal;isolation: isolate">
      <g id="Group_576-2" data-name="Group 576" transform="translate(0)" style="mix-blend-mode: normal;isolation: isolate">
        <path id="Path_1792" data-name="Path 1792" d="M153.964,153.016a5.212,5.212,0,0,1-.86,1.447,5.436,5.436,0,0,1-1.243,1.078,7.608,7.608,0,0,1-1.447.723,8.91,8.91,0,0,1-1.638.41q-.873.136-1.76.2t-1.734.068h-1.474v2.567c0,.31,0,.6.013.86s.013.55.013.859c.019.583.037,1.083.055,1.5a2,2,0,0,0,.3,1.037,2.31,2.31,0,0,0,.847.71,3.97,3.97,0,0,0,1.747.409v.273h-8.736v-.273a7.56,7.56,0,0,0,1.31-.328,2.124,2.124,0,0,0,.983-.654,1.243,1.243,0,0,0,.218-.492,5.147,5.147,0,0,0,.123-.738c.027-.273.05-.564.069-.874s.026-.609.026-.9q0-.382.014-1.037t.027-1.434q.013-.779.013-1.6v-6.908q0-.492-.013-1c-.01-.337-.027-.655-.055-.956a5.134,5.134,0,0,0-.137-.819,1.151,1.151,0,0,0-.259-.533,2.051,2.051,0,0,0-1.051-.587q-.643-.15-1.379-.259v-.273h.655q.518,0,1.214-.014c.465-.009.969-.014,1.516-.014s1.087,0,1.624-.013,1.042-.013,1.515-.013h1.229a25.512,25.512,0,0,1,3.195.178,7.231,7.231,0,0,1,2.621.859,5.561,5.561,0,0,1,1.993,1.857,5.046,5.046,0,0,1,.792,2.84A4.889,4.889,0,0,1,153.964,153.016Zm-3.427-4.778a4.957,4.957,0,0,0-3.508-2.266,10.468,10.468,0,0,0-1.529-.11,7.251,7.251,0,0,0-.887.042l-.506.068a1.839,1.839,0,0,1-.068.287,1.851,1.851,0,0,0-.068.314c-.019.127-.036.3-.055.533s-.036.55-.054.969q-.028.957-.042,2.32t-.013,2.676v3.5q1.118,0,2.1-.069a6.84,6.84,0,0,0,1.829-.368,5.11,5.11,0,0,0,2.675-1.979,5.428,5.428,0,0,0,.928-3.1A5.018,5.018,0,0,0,150.537,148.238Z" transform="translate(-137.937 -145.236)" fill="#fff"/>
        <path id="Path_1793" data-name="Path 1793" d="M173.381,165.169q-.246-.245-.355-.368t-.246-.286a5.476,5.476,0,0,1-.341-.478c-.136-.209-.351-.524-.641-.942q-.519-.763-.914-1.379t-.806-1.214q-.409-.6-.887-1.215t-1.133-1.379a11.205,11.205,0,0,0-1.187-1.174,2.943,2.943,0,0,0-1.352-.683,4.192,4.192,0,0,0-.791-.109q-.246,0-.628-.028V159q0,1.31.027,2.212.026.873.055,1.5a1.988,1.988,0,0,0,.3,1.038,2.416,2.416,0,0,0,.847.723,3.844,3.844,0,0,0,1.747.423v.273h-8.736V164.9a7.539,7.539,0,0,0,1.31-.328,2.124,2.124,0,0,0,.983-.654,1.243,1.243,0,0,0,.219-.492,5.276,5.276,0,0,0,.123-.738c.027-.273.049-.564.068-.874s.027-.609.027-.9q0-.382.013-1.037c.01-.437.018-.915.027-1.434s.014-1.051.014-1.6v-6.908c0-.328-.005-.66-.014-1s-.027-.655-.054-.956a5.232,5.232,0,0,0-.137-.819,1.151,1.151,0,0,0-.26-.533,2.061,2.061,0,0,0-.914-.587,9.153,9.153,0,0,0-1.243-.259v-.273h1.12q.927,0,2.1-.014t2.348-.014h1.911q1.828,0,3.249.11a6.5,6.5,0,0,1,2.594.738,5.253,5.253,0,0,1,1.938,1.706,4.7,4.7,0,0,1,.738,2.716,4.318,4.318,0,0,1-.368,1.816,4.834,4.834,0,0,1-.983,1.419,5.961,5.961,0,0,1-1.434,1.051,11.03,11.03,0,0,1-1.72.738v.082a3.494,3.494,0,0,1,.9.71,9.952,9.952,0,0,1,.846,1.037q.71,1.039,1.543,2.239t1.487,2.13a8.339,8.339,0,0,0,1.966,2.075,5.263,5.263,0,0,0,2.239.846v.273Zm-2.7-17.009a4.721,4.721,0,0,0-1.993-1.693,5.958,5.958,0,0,0-1.379-.436,8.164,8.164,0,0,0-1.516-.137c-.382,0-.692.01-.927.027s-.42.037-.547.055c-.019.11-.036.2-.055.287a2.127,2.127,0,0,0-.041.314q-.015.191-.027.533c-.009.228-.023.55-.041.969q-.028.957-.042,2.157t-.013,2.321v3q1.12,0,2.089-.1a8.527,8.527,0,0,0,1.87-.4,5.015,5.015,0,0,0,1.5-.737,4.248,4.248,0,0,0,1.611-2.321,5.248,5.248,0,0,0,.192-1.419A4.412,4.412,0,0,0,170.679,148.16Z" transform="translate(-140.319 -145.239)" fill="#fff"/>
        <path id="Path_1794" data-name="Path 1794" d="M201.179,159.213a10.147,10.147,0,0,1-2.225,3.221,9.821,9.821,0,0,1-3.277,2.1,11.055,11.055,0,0,1-7.9.014,9.839,9.839,0,0,1-3.249-2.047,9.653,9.653,0,0,1-2.2-3.167,10.013,10.013,0,0,1-.806-4.054,10.118,10.118,0,0,1,.846-4.218,9.494,9.494,0,0,1,2.28-3.167A10.028,10.028,0,0,1,188,145.9a11.818,11.818,0,0,1,4.055-.7,10.157,10.157,0,0,1,4.164.819,9.467,9.467,0,0,1,3.126,2.2,9.647,9.647,0,0,1,1.966,3.181,10.57,10.57,0,0,1,.682,3.768A9.9,9.9,0,0,1,201.179,159.213Zm-2.99-7.372a10.654,10.654,0,0,0-1.283-3.072,7.307,7.307,0,0,0-2.143-2.238,5.311,5.311,0,0,0-3.03-.86,5.423,5.423,0,0,0-3.072.86,6.99,6.99,0,0,0-2.13,2.225,10.306,10.306,0,0,0-1.229,3.1,15.7,15.7,0,0,0-.4,3.508,14.462,14.462,0,0,0,.437,3.577,9.9,9.9,0,0,0,1.3,3.03,6.792,6.792,0,0,0,2.157,2.1,5.667,5.667,0,0,0,3.016.791,5.138,5.138,0,0,0,2.99-.874,7.366,7.366,0,0,0,2.116-2.252,10.851,10.851,0,0,0,1.269-3.1,14.379,14.379,0,0,0,.423-3.44A13.825,13.825,0,0,0,198.189,151.841Z" transform="translate(-143.025 -145.207)" fill="#fff"/>
      </g>
    </g>
    <g id="IDEAS_TO_ACTION" data-name="IDEAS TO ACTION" transform="translate(179.134 188.791)" style="mix-blend-mode: normal;isolation: isolate">
      <g id="Group_577" data-name="Group 577" style="mix-blend-mode: normal;isolation: isolate">
        <path id="Path_1795" data-name="Path 1795" d="M184.623,201.716v-.06a1.263,1.263,0,0,0,.281-.079.594.594,0,0,0,.222-.157.257.257,0,0,0,.045-.1,1.405,1.405,0,0,0,.025-.157c.005-.061.01-.125.011-.191s0-.132,0-.2,0-.133,0-.231,0-.2.006-.317,0-.233,0-.354v-1.75c0-.072,0-.14-.009-.2a1.217,1.217,0,0,0-.027-.17.278.278,0,0,0-.054-.118.488.488,0,0,0-.209-.148,1.265,1.265,0,0,0-.281-.064v-.06h1.809v.06a1.66,1.66,0,0,0-.272.066.392.392,0,0,0-.224.194.589.589,0,0,0-.057.261c0,.105,0,.2-.009.3s0,.2,0,.3,0,.2,0,.3v2.028c0,.117,0,.23.006.338a.433.433,0,0,0,.055.231.447.447,0,0,0,.23.157,1.3,1.3,0,0,0,.284.067v.06Z" transform="translate(-184.623 -197.267)" fill="#fff"/>
        <path id="Path_1796" data-name="Path 1796" d="M191.941,200.275a1.956,1.956,0,0,1-.3.594,1.758,1.758,0,0,1-.435.411,2.363,2.363,0,0,1-.527.261,2.876,2.876,0,0,1-.574.137,4.507,4.507,0,0,1-.576.039h-2.209v-.06a1.069,1.069,0,0,0,.293-.079.554.554,0,0,0,.215-.145.209.209,0,0,0,.046-.1c.01-.049.019-.1.027-.164s.014-.125.018-.193.006-.135.006-.2,0-.133,0-.231,0-.2.006-.317,0-.233,0-.354v-1.75c0-.072,0-.14-.009-.2a1.217,1.217,0,0,0-.027-.17.279.279,0,0,0-.055-.118.471.471,0,0,0-.218-.151,1.416,1.416,0,0,0-.284-.061v-.06c.169,0,.413,0,.732,0s.7,0,1.156,0h.387c.133,0,.267.006.4.019a3.29,3.29,0,0,1,.4.06,2.039,2.039,0,0,1,.393.127,2.256,2.256,0,0,1,.478.278,1.862,1.862,0,0,1,.391.4,1.979,1.979,0,0,1,.266.539,2.231,2.231,0,0,1,.1.7A2.667,2.667,0,0,1,191.941,200.275ZM191.2,198.8a2.216,2.216,0,0,0-.3-.6,1.934,1.934,0,0,0-.46-.458,1.416,1.416,0,0,0-.581-.242c-.08-.016-.169-.029-.266-.039a3.37,3.37,0,0,0-.358-.016c-.048,0-.1,0-.156,0s-.112.006-.167.012l-.151.015a.577.577,0,0,0-.112.019c-.02.2-.033.47-.036.816s-.006.761-.006,1.241v.708c0,.21,0,.382.006.515,0,.057,0,.117.009.185s.013.131.021.193a.825.825,0,0,0,.039.17.308.308,0,0,0,.064.112.559.559,0,0,0,.3.154,1.9,1.9,0,0,0,.349.034c.1,0,.2,0,.312-.015a1.486,1.486,0,0,0,.3-.057,1.61,1.61,0,0,0,.978-.73,2.56,2.56,0,0,0,.324-1.335A2.189,2.189,0,0,0,191.2,198.8Z" transform="translate(-184.938 -197.266)" fill="#fff"/>
        <path id="Path_1797" data-name="Path 1797" d="M196.866,201.716h-3.7v-.06a1.263,1.263,0,0,0,.281-.079.572.572,0,0,0,.216-.151.27.27,0,0,0,.049-.106c.011-.046.023-.1.033-.16a1.818,1.818,0,0,0,.021-.191c0-.067.006-.132.006-.2s0-.133,0-.231,0-.2.005-.317,0-.233,0-.354v-1.532c0-.072,0-.148,0-.224s-.005-.149-.011-.217a1.241,1.241,0,0,0-.03-.185.259.259,0,0,0-.058-.118.413.413,0,0,0-.193-.125c-.069-.018-.157-.034-.266-.051v-.06h3.34l.412,1-.06.03a2.947,2.947,0,0,0-.92-.823,1.422,1.422,0,0,0-.381-.085,5.284,5.284,0,0,0-.678-.036c-.085,0-.172,0-.263.009a1.738,1.738,0,0,0-.2.021c-.008.064-.015.2-.021.4s-.009.436-.009.7v.388c0,.1,0,.191,0,.257s0,.118,0,.155v.066h.121c.06,0,.13,0,.208-.006s.158-.009.236-.015a1.333,1.333,0,0,0,.2-.027,1.084,1.084,0,0,0,.3-.116.661.661,0,0,0,.2-.175.86.86,0,0,0,.122-.239,2.859,2.859,0,0,0,.081-.306h.072v1.907h-.072a2.059,2.059,0,0,0-.148-.4,1.052,1.052,0,0,0-.208-.308.8.8,0,0,0-.233-.14,1.07,1.07,0,0,0-.318-.067l-.151-.009-.121,0h-.278a1.753,1.753,0,0,0-.012.248v.726c0,.064,0,.126,0,.185s0,.109,0,.148c0,.13.011.251.021.367a.577.577,0,0,0,.069.257.383.383,0,0,0,.261.121,2.614,2.614,0,0,0,.449.036c.068,0,.155,0,.262-.006a3.1,3.1,0,0,0,.337-.03,1.332,1.332,0,0,0,.357-.094,1.251,1.251,0,0,0,.314-.2,1.965,1.965,0,0,0,.294-.312,4.1,4.1,0,0,0,.293-.445l.067.019Z" transform="translate(-185.62 -197.267)" fill="#fff"/>
        <path id="Path_1798" data-name="Path 1798" d="M200.415,201.7v-.06a.785.785,0,0,0,.088-.012.716.716,0,0,0,.145-.042.429.429,0,0,0,.133-.085.185.185,0,0,0,.057-.14.809.809,0,0,0-.034-.178c-.022-.083-.053-.184-.094-.3s-.087-.251-.14-.4-.109-.3-.169-.455h-1.611q-.09.231-.175.439l-.17.421a1.528,1.528,0,0,0-.127.46.181.181,0,0,0,.049.13.366.366,0,0,0,.124.085.689.689,0,0,0,.163.048l.167.028v.06h-1.29v-.066a.681.681,0,0,0,.269-.085.623.623,0,0,0,.13-.091,1.231,1.231,0,0,0,.14-.2,4.413,4.413,0,0,0,.236-.466c.085-.19.18-.405.284-.647l.324-.747q.167-.384.33-.775c.109-.26.211-.5.308-.73l-.061-.133a.993.993,0,0,0,.2-.115,1.2,1.2,0,0,0,.155-.14,1.216,1.216,0,0,0,.112-.14q.045-.066.069-.109h.049q.187.5.357.953c.113.3.221.59.324.869s.2.548.3.807.194.518.291.772c.044.125.086.23.124.312s.081.177.13.282a.877.877,0,0,0,.055.085.738.738,0,0,0,.112.124.683.683,0,0,0,.172.112.63.63,0,0,0,.242.055v.072Zm-.793-3.668c-.024.052-.059.135-.106.248s-.1.25-.172.412-.144.344-.227.548l-.269.663h1.508q-.1-.273-.209-.545c-.071-.182-.14-.356-.206-.524s-.127-.321-.181-.46S199.658,198.126,199.622,198.037Z" transform="translate(-186.13 -197.256)" fill="#fff"/>
        <path id="Path_1799" data-name="Path 1799" d="M205.889,201.035a1.181,1.181,0,0,1-.328.394,1.4,1.4,0,0,1-.5.242,2.44,2.44,0,0,1-.636.079,3.1,3.1,0,0,1-.508-.036,2.164,2.164,0,0,1-.352-.087,1.286,1.286,0,0,1-.208-.095.294.294,0,0,0-.087-.042c-.012,0-.039.025-.079.072s-.077.1-.109.14h-.055l-.018-1.2h.061a1.874,1.874,0,0,0,.139.318,2.753,2.753,0,0,0,.185.291,1.658,1.658,0,0,0,.212.239,1.1,1.1,0,0,0,.215.157,1.729,1.729,0,0,0,.272.109,1.048,1.048,0,0,0,.327.055,1.059,1.059,0,0,0,.727-.246.838.838,0,0,0,.278-.662.751.751,0,0,0-.054-.3.709.709,0,0,0-.148-.221.931.931,0,0,0-.221-.16,2.335,2.335,0,0,0-.273-.121c-.1-.036-.182-.067-.254-.092s-.14-.047-.2-.069l-.194-.066c-.066-.023-.146-.052-.238-.088a1.292,1.292,0,0,1-.3-.166,1.254,1.254,0,0,1-.254-.248,1.276,1.276,0,0,1-.175-.315.992.992,0,0,1-.067-.366,1.237,1.237,0,0,1,.119-.564,1.173,1.173,0,0,1,.321-.393,1.35,1.35,0,0,1,.465-.233,2,2,0,0,1,.554-.076,2.04,2.04,0,0,1,.466.046,1.857,1.857,0,0,1,.317.1,1.049,1.049,0,0,1,.187.1.427.427,0,0,0,.071.045c.011,0,.037-.024.075-.072s.073-.1.106-.145h.066v1.119h-.066a2.508,2.508,0,0,0-.187-.4,1.8,1.8,0,0,0-.267-.352,1.281,1.281,0,0,0-.345-.252.958.958,0,0,0-.429-.1,1.135,1.135,0,0,0-.354.055.824.824,0,0,0-.291.163.739.739,0,0,0-.193.269.9.9,0,0,0-.07.366.7.7,0,0,0,.193.515,1.376,1.376,0,0,0,.5.309c.08.032.156.06.226.084s.14.048.208.07l.208.07c.071.024.144.05.221.079a1.408,1.408,0,0,1,.637.439,1.234,1.234,0,0,1,.109,1.237Z" transform="translate(-186.77 -197.258)" fill="#fff"/>
        <path id="Path_1800" data-name="Path 1800" d="M212.64,198.488c-.032-.072-.071-.148-.115-.227s-.09-.152-.136-.221-.092-.132-.136-.191a.924.924,0,0,0-.116-.13.632.632,0,0,0-.276-.161,1.633,1.633,0,0,0-.378-.045c-.077,0-.143,0-.2,0s-.113,0-.17,0h-.4c0,.1,0,.238,0,.412s0,.355,0,.545v2.366c0,.117,0,.23.009.337a.451.451,0,0,0,.057.227.458.458,0,0,0,.258.181,3.041,3.041,0,0,0,.3.073v.06h-1.967v-.06a1.848,1.848,0,0,0,.3-.061.623.623,0,0,0,.284-.2.206.206,0,0,0,.046-.1,1.387,1.387,0,0,0,.024-.157c.006-.059.011-.122.012-.191s0-.135,0-.2,0-.131,0-.223,0-.2.006-.309,0-.23,0-.351v-2.349h-.4c-.053,0-.109,0-.167,0s-.126,0-.2,0a1.362,1.362,0,0,0-.379.054.726.726,0,0,0-.275.17.876.876,0,0,0-.112.127c-.042.057-.087.118-.133.185a2.411,2.411,0,0,0-.132.216,1.294,1.294,0,0,0-.1.223l-.054-.019.181-1.149q.139.03.257.048a2.973,2.973,0,0,0,.343.025l.412.009.351,0h1.15l.352,0,.351-.006.412,0a1.948,1.948,0,0,0,.33-.034c.087-.018.177-.042.268-.07l.194,1.18Z" transform="translate(-187.363 -197.259)" fill="#fff"/>
        <path id="Path_1801" data-name="Path 1801" d="M217.771,200.394a2.258,2.258,0,0,1-.494.715,2.173,2.173,0,0,1-.726.465,2.456,2.456,0,0,1-1.752,0,2.178,2.178,0,0,1-.72-.454,2.15,2.15,0,0,1-.488-.7,2.392,2.392,0,0,1,.009-1.835,2.117,2.117,0,0,1,.505-.7,2.248,2.248,0,0,1,.745-.442,2.635,2.635,0,0,1,.9-.155,2.253,2.253,0,0,1,.923.182,2.079,2.079,0,0,1,1.129,1.192,2.342,2.342,0,0,1,.151.836A2.2,2.2,0,0,1,217.771,200.394Zm-.663-1.634a2.355,2.355,0,0,0-.284-.681,1.617,1.617,0,0,0-.475-.5,1.177,1.177,0,0,0-.671-.191,1.2,1.2,0,0,0-.681.191,1.566,1.566,0,0,0-.473.493,2.3,2.3,0,0,0-.272.687,3.446,3.446,0,0,0-.088.777,3.209,3.209,0,0,0,.1.793,2.2,2.2,0,0,0,.288.672,1.5,1.5,0,0,0,.478.466,1.261,1.261,0,0,0,.669.176,1.144,1.144,0,0,0,.663-.194,1.648,1.648,0,0,0,.469-.5,2.421,2.421,0,0,0,.281-.687,3.177,3.177,0,0,0,.095-.763A3.049,3.049,0,0,0,217.108,198.76Z" transform="translate(-187.984 -197.259)" fill="#fff"/>
        <path id="Path_1802" data-name="Path 1802" d="M222.852,201.7v-.06a.781.781,0,0,0,.087-.012.723.723,0,0,0,.146-.042.415.415,0,0,0,.132-.085.182.182,0,0,0,.057-.14.793.793,0,0,0-.033-.178c-.023-.083-.054-.184-.095-.3s-.087-.251-.139-.4-.109-.3-.17-.455h-1.61c-.06.154-.119.3-.176.439l-.17.421a1.556,1.556,0,0,0-.127.46.181.181,0,0,0,.049.13.365.365,0,0,0,.124.085.689.689,0,0,0,.163.048l.166.028v.06h-1.289v-.066a.677.677,0,0,0,.269-.085.642.642,0,0,0,.131-.091,1.358,1.358,0,0,0,.14-.2,4.413,4.413,0,0,0,.236-.466q.127-.285.284-.647l.324-.747q.166-.384.329-.775c.109-.26.212-.5.309-.73l-.061-.133a1.018,1.018,0,0,0,.2-.115,1.186,1.186,0,0,0,.154-.14,1.124,1.124,0,0,0,.112-.14c.031-.044.054-.08.07-.109h.049q.188.5.357.953c.113.3.221.59.324.869s.2.548.3.807.193.518.291.772a3.347,3.347,0,0,0,.125.312l.13.282a.84.84,0,0,0,.166.208.716.716,0,0,0,.172.112.631.631,0,0,0,.243.055v.072Zm-.793-3.668c-.024.052-.059.135-.106.248s-.1.25-.172.412-.145.344-.227.548-.173.425-.269.663h1.507c-.069-.182-.138-.364-.208-.545s-.14-.356-.206-.524-.127-.321-.182-.46S222.1,198.126,222.059,198.037Z" transform="translate(-188.75 -197.256)" fill="#fff"/>
        <path id="Path_1803" data-name="Path 1803" d="M229.365,198.75a2.065,2.065,0,0,0-.237-.545,1.925,1.925,0,0,0-.372-.442,1.7,1.7,0,0,0-.484-.3,1.52,1.52,0,0,0-.572-.109,1.466,1.466,0,0,0-.745.187,1.713,1.713,0,0,0-.548.5,2.362,2.362,0,0,0-.339.7,2.753,2.753,0,0,0-.118.8,2.621,2.621,0,0,0,.125.818,2.018,2.018,0,0,0,.354.662,1.7,1.7,0,0,0,.556.445,1.608,1.608,0,0,0,.727.163,1.514,1.514,0,0,0,.59-.115,1.8,1.8,0,0,0,.49-.3,1.837,1.837,0,0,0,.363-.433,1.611,1.611,0,0,0,.2-.505h.072l-.019,1.331h-.072a1.727,1.727,0,0,0-.151-.187c-.053-.057-.089-.085-.11-.085a.544.544,0,0,0-.109.064,1.822,1.822,0,0,1-.278.14,2.633,2.633,0,0,1-.442.132,2.769,2.769,0,0,1-.6.057,3.039,3.039,0,0,1-1.017-.16,2.195,2.195,0,0,1-.772-.454,1.979,1.979,0,0,1-.488-.7,2.339,2.339,0,0,1-.169-.9,2.2,2.2,0,0,1,.015-.248,2.119,2.119,0,0,1,.054-.3,2.525,2.525,0,0,1,.11-.329,2.282,2.282,0,0,1,.178-.348,2.19,2.19,0,0,1,.314-.394,2.013,2.013,0,0,1,.442-.329,2.432,2.432,0,0,1,.576-.227,2.815,2.815,0,0,1,.72-.085,2.667,2.667,0,0,1,.636.067,2.874,2.874,0,0,1,.453.145,1.676,1.676,0,0,1,.279.145.572.572,0,0,0,.109.067.106.106,0,0,0,.046-.027c.022-.019.046-.041.072-.067s.053-.057.082-.09.054-.07.078-.106h.067v1.356Z" transform="translate(-189.361 -197.255)" fill="#fff"/>
        <path id="Path_1804" data-name="Path 1804" d="M234.81,198.488c-.033-.072-.071-.148-.116-.227s-.089-.152-.136-.221-.092-.132-.136-.191a.927.927,0,0,0-.115-.13.642.642,0,0,0-.276-.161,1.646,1.646,0,0,0-.378-.045c-.077,0-.144,0-.2,0s-.112,0-.169,0h-.4c0,.1,0,.238,0,.412s0,.355,0,.545v2.366c0,.117,0,.23.009.337a.442.442,0,0,0,.057.227.456.456,0,0,0,.257.181c.111.033.211.057.3.073v.06h-1.967v-.06a1.858,1.858,0,0,0,.3-.061.627.627,0,0,0,.284-.2.2.2,0,0,0,.045-.1,1.376,1.376,0,0,0,.025-.157c.006-.059.01-.122.011-.191s0-.135,0-.2,0-.131,0-.223,0-.2.006-.309,0-.23,0-.351v-2.349h-.4c-.052,0-.108,0-.166,0s-.126,0-.2,0a1.36,1.36,0,0,0-.378.054.735.735,0,0,0-.276.17.93.93,0,0,0-.112.127c-.042.057-.087.118-.133.185s-.09.139-.132.216a1.289,1.289,0,0,0-.1.223l-.055-.019.182-1.149q.139.03.257.048a2.938,2.938,0,0,0,.342.025l.412.009.352,0h1.149l.352,0,.351-.006.412,0a1.936,1.936,0,0,0,.329-.034c.087-.018.177-.042.269-.07l.193,1.18Z" transform="translate(-189.952 -197.259)" fill="#fff"/>
        <path id="Path_1805" data-name="Path 1805" d="M235.7,201.716v-.06a1.276,1.276,0,0,0,.281-.079.6.6,0,0,0,.222-.157.257.257,0,0,0,.045-.1,1.426,1.426,0,0,0,.024-.157c.006-.061.01-.125.012-.191s0-.132,0-.2,0-.133,0-.231,0-.2.006-.317,0-.233,0-.354v-1.75c0-.072,0-.14-.009-.2a1.217,1.217,0,0,0-.027-.17.278.278,0,0,0-.055-.118.485.485,0,0,0-.208-.148,1.262,1.262,0,0,0-.282-.064v-.06h1.81v.06a1.617,1.617,0,0,0-.272.066.393.393,0,0,0-.224.194.589.589,0,0,0-.057.261c0,.105-.005.2-.009.3s0,.2,0,.3,0,.2,0,.3v2.028c0,.117,0,.23.006.338a.435.435,0,0,0,.054.231.453.453,0,0,0,.231.157,1.293,1.293,0,0,0,.284.067v.06Z" transform="translate(-190.586 -197.267)" fill="#fff"/>
        <path id="Path_1806" data-name="Path 1806" d="M242.674,200.394a2.242,2.242,0,0,1-.493.715,2.173,2.173,0,0,1-.726.465,2.456,2.456,0,0,1-1.752,0,2.19,2.19,0,0,1-.721-.454,2.134,2.134,0,0,1-.487-.7,2.382,2.382,0,0,1,.009-1.835,2.092,2.092,0,0,1,.505-.7,2.248,2.248,0,0,1,.745-.442,2.632,2.632,0,0,1,.9-.155,2.254,2.254,0,0,1,.923.182,2.111,2.111,0,0,1,.693.487,2.155,2.155,0,0,1,.435.706,2.342,2.342,0,0,1,.151.836A2.182,2.182,0,0,1,242.674,200.394Zm-.662-1.634a2.355,2.355,0,0,0-.284-.681,1.617,1.617,0,0,0-.475-.5,1.178,1.178,0,0,0-.672-.191,1.205,1.205,0,0,0-.681.191,1.563,1.563,0,0,0-.472.493,2.3,2.3,0,0,0-.272.687,3.445,3.445,0,0,0-.088.777,3.209,3.209,0,0,0,.1.793,2.2,2.2,0,0,0,.288.672,1.5,1.5,0,0,0,.478.466,1.261,1.261,0,0,0,.669.176,1.139,1.139,0,0,0,.662-.194,1.64,1.64,0,0,0,.47-.5,2.421,2.421,0,0,0,.281-.687,3.177,3.177,0,0,0,.094-.763A3.048,3.048,0,0,0,242.012,198.76Z" transform="translate(-190.892 -197.259)" fill="#fff"/>
        <path id="Path_1807" data-name="Path 1807" d="M248.442,197.534a.537.537,0,0,0-.209.26,1.019,1.019,0,0,0-.054.336c-.009.164-.016.338-.025.524s-.015.378-.021.615-.009.489-.009.76v.387c0,.142,0,.286,0,.434s0,.293,0,.439v.393a.053.053,0,0,1-.015.039.062.062,0,0,1-.046.016.164.164,0,0,1-.109-.061q-.515-.594-.939-1.09l-.807-.947q-.386-.45-.754-.881t-.78-.889v2.553c0,.207,0,.392.015.557a1.006,1.006,0,0,0,.075.369.436.436,0,0,0,.209.208,1.236,1.236,0,0,0,.39.1v.06h-1.489v-.06a1.218,1.218,0,0,0,.291-.076.48.48,0,0,0,.23-.191.835.835,0,0,0,.11-.375c.016-.165.027-.363.036-.594q.012-.26.018-.614t.006-.76v-.738c0-.081,0-.18-.006-.3a.711.711,0,0,0-.084-.288.565.565,0,0,0-.158-.175.6.6,0,0,0-.2-.091,1.716,1.716,0,0,0-.2-.04v-.06h1.229l2.869,3.353v-2.058c0-.161,0-.315-.005-.463a1.089,1.089,0,0,0-.055-.348.558.558,0,0,0-.215-.276,1.068,1.068,0,0,0-.445-.148v-.06h1.5v.06A.906.906,0,0,0,248.442,197.534Z" transform="translate(-191.541 -197.267)" fill="#fff"/>
      </g>
    </g>
    <g id="BACKERS" transform="translate(137.61 165.456)" style="mix-blend-mode: normal;isolation: isolate">
      <g id="Group_578" data-name="Group 578" style="mix-blend-mode: normal;isolation: isolate">
        <path id="Path_1808" data-name="Path 1808" d="M154.92,187.353a4.981,4.981,0,0,1-.792,1.392,5.519,5.519,0,0,1-1.092,1.024,5.161,5.161,0,0,1-1.2.642,8.219,8.219,0,0,1-2.32.464q-1.284.082-2.485.082H137.61v-.273a6.062,6.062,0,0,0,1.3-.355,2.572,2.572,0,0,0,1-.683,1.249,1.249,0,0,0,.218-.478c.055-.209.1-.45.15-.723a8.5,8.5,0,0,0,.1-.86c.018-.3.027-.6.027-.888q0-.382.013-1.037c.01-.437.018-.915.027-1.434s.014-1.051.014-1.6V178.4q0-.6-.014-1.229c-.01-.418-.014-.9-.014-1.447q0-.49-.027-1t-.1-.969a8.045,8.045,0,0,0-.164-.833,1.169,1.169,0,0,0-.26-.533,2.195,2.195,0,0,0-.819-.586,5.044,5.044,0,0,0-1.146-.232V171.3h9.2a15.265,15.265,0,0,1,1.979.123,8.146,8.146,0,0,1,1.816.45,5.417,5.417,0,0,1,2.293,1.584,4.037,4.037,0,0,1,.9,2.7,3.832,3.832,0,0,1-1.161,2.908,6.021,6.021,0,0,1-3.016,1.487v.11a7.792,7.792,0,0,1,1.939.478,6.024,6.024,0,0,1,1.706,1,4.881,4.881,0,0,1,1.2,1.488,4.154,4.154,0,0,1,.45,1.952A4.99,4.99,0,0,1,154.92,187.353Zm-4.656-13.624a4.026,4.026,0,0,0-1.734-1.529,7.774,7.774,0,0,0-3.14-.546,8.984,8.984,0,0,0-1.037.054,3.792,3.792,0,0,0-.71.137c-.019.11-.036.209-.055.3a2.6,2.6,0,0,0-.041.341q-.015.205-.027.505c-.009.2-.023.465-.041.791q-.028.957-.042,2.1t-.013,2.184v2.621h1.529q.628,0,1.01-.027a5.545,5.545,0,0,0,3.726-1.392,4.2,4.2,0,0,0,1.27-3.113A4.339,4.339,0,0,0,150.264,173.729Zm1.5,10.662a4.888,4.888,0,0,0-.71-1.283,4.667,4.667,0,0,0-1.064-1.01,5.343,5.343,0,0,0-1.351-.669,6.371,6.371,0,0,0-1.188-.26,12.219,12.219,0,0,0-1.379-.068h-2.648v3.413q0,.764.013,1.406t.014,1.106q.026,1.037.1,1.706a2.166,2.166,0,0,0,.4,1.1,1.845,1.845,0,0,0,.738.505,3.828,3.828,0,0,0,1.419.2,14.663,14.663,0,0,0,1.72-.11,5.068,5.068,0,0,0,1.8-.573,4.523,4.523,0,0,0,1.774-1.6,4.389,4.389,0,0,0,.628-2.389A4.22,4.22,0,0,0,151.766,184.391Z" transform="translate(-137.61 -170.889)" fill="#fff"/>
        <path id="Path_1809" data-name="Path 1809" d="M171.44,190.906v-.273a3.306,3.306,0,0,0,.4-.055,3.23,3.23,0,0,0,.655-.192,1.891,1.891,0,0,0,.6-.382.827.827,0,0,0,.259-.628,3.54,3.54,0,0,0-.15-.806q-.15-.559-.423-1.366t-.628-1.789q-.355-.982-.764-2.047h-7.262q-.411,1.039-.792,1.979t-.765,1.9a6.916,6.916,0,0,0-.573,2.075.82.82,0,0,0,.218.586,1.685,1.685,0,0,0,.56.382,3.109,3.109,0,0,0,.738.218q.4.069.751.124v.273h-5.815v-.3a3.026,3.026,0,0,0,1.214-.382,2.687,2.687,0,0,0,.587-.41,5.948,5.948,0,0,0,.628-.9,19.778,19.778,0,0,0,1.064-2.1q.574-1.282,1.284-2.922l1.46-3.371q.751-1.734,1.488-3.5t1.392-3.29l-.273-.6a4.455,4.455,0,0,0,.888-.519,5.258,5.258,0,0,0,.7-.628,5.62,5.62,0,0,0,.505-.628c.137-.2.241-.364.314-.491h.219q.845,2.267,1.61,4.3t1.461,3.918q.7,1.884,1.351,3.645t1.311,3.481c.2.564.386,1.033.56,1.406s.368.8.586,1.269a3.554,3.554,0,0,0,.246.382,3.387,3.387,0,0,0,.5.559,3.1,3.1,0,0,0,.778.506,2.823,2.823,0,0,0,1.093.246v.328Zm-3.577-16.545q-.163.355-.478,1.119t-.777,1.857q-.465,1.092-1.025,2.47l-1.214,2.99h6.8q-.465-1.228-.942-2.457t-.928-2.362q-.45-1.133-.819-2.075T167.863,174.361Z" transform="translate(-140.042 -170.839)" fill="#fff"/>
        <path id="Path_1810" data-name="Path 1810" d="M200.817,177.579a9.23,9.23,0,0,0-1.065-2.457,8.722,8.722,0,0,0-1.679-1.993,7.656,7.656,0,0,0-2.184-1.338,6.811,6.811,0,0,0-2.58-.492,6.624,6.624,0,0,0-3.358.847,7.74,7.74,0,0,0-2.47,2.239,10.661,10.661,0,0,0-1.529,3.153,12.426,12.426,0,0,0-.533,3.618,11.824,11.824,0,0,0,.56,3.685,9.124,9.124,0,0,0,1.6,2.99,7.577,7.577,0,0,0,2.512,2.007,7.216,7.216,0,0,0,3.276.738,6.85,6.85,0,0,0,2.662-.518,8.059,8.059,0,0,0,2.212-1.366,8.24,8.24,0,0,0,1.638-1.952,7.257,7.257,0,0,0,.915-2.28h.328l-.082,6.006h-.328a8.167,8.167,0,0,0-.683-.846q-.355-.383-.491-.382a2.384,2.384,0,0,0-.491.287,8.033,8.033,0,0,1-1.256.628,12.009,12.009,0,0,1-1.993.6,12.655,12.655,0,0,1-2.7.259,13.7,13.7,0,0,1-4.587-.723,9.927,9.927,0,0,1-3.481-2.047,8.893,8.893,0,0,1-2.2-3.167,10.48,10.48,0,0,1-.764-4.054,10.361,10.361,0,0,1,.068-1.119,9.79,9.79,0,0,1,.246-1.338,11.072,11.072,0,0,1,.491-1.488,10.218,10.218,0,0,1,.806-1.57,9.758,9.758,0,0,1,1.419-1.775,9.026,9.026,0,0,1,1.993-1.487,11.1,11.1,0,0,1,2.593-1.024,12.709,12.709,0,0,1,3.249-.382,12.144,12.144,0,0,1,2.867.3,12.978,12.978,0,0,1,2.047.655,7.682,7.682,0,0,1,1.257.655,2.359,2.359,0,0,0,.491.3.48.48,0,0,0,.2-.123q.15-.123.328-.3c.118-.118.24-.255.368-.41a5.919,5.919,0,0,0,.355-.478h.3v6.116Z" transform="translate(-142.8 -170.835)" fill="#fff"/>
        <path id="Path_1811" data-name="Path 1811" d="M221.175,190.957a1.942,1.942,0,0,1-.246-.15,1.69,1.69,0,0,1-.3-.287l-3.317-3.836q-1.57-1.815-3.262-3.672a8.782,8.782,0,0,0-.97-.983.81.81,0,0,0-.45-.192.342.342,0,0,0-.287.1,1.5,1.5,0,0,0-.15.314v2.7q0,1.256.027,2.157.028.792.11,1.474a2.107,2.107,0,0,0,.355,1.038,1.607,1.607,0,0,0,.518.464,3.559,3.559,0,0,0,.71.314,5.886,5.886,0,0,0,.751.191q.368.069.641.1v.273h-8.764v-.273a7.619,7.619,0,0,0,1.31-.328,2.159,2.159,0,0,0,.956-.6,1.249,1.249,0,0,0,.219-.492,5.142,5.142,0,0,0,.123-.751c.027-.282.045-.582.055-.9s.013-.623.013-.915q0-.382.013-1.037t.014-1.419v-8.519q0-1.037-.068-1.91a2.361,2.361,0,0,0-.369-1.256,2.3,2.3,0,0,0-.928-.683,4.852,4.852,0,0,0-1.256-.3V171.3h8.464v.273q-.519.054-1.01.15a1.946,1.946,0,0,0-.874.409,2.359,2.359,0,0,0-.642.942,5.137,5.137,0,0,0-.286,1.774c-.019.42-.032.81-.041,1.174s-.014.783-.014,1.256v4.232a10.67,10.67,0,0,0,1.324-1.024q.833-.723,1.748-1.624T217.106,177q.9-.955,1.556-1.665a10.437,10.437,0,0,0,.833-1.12,1.97,1.97,0,0,0,.368-1.037,1.267,1.267,0,0,0-.546-1.147,3.158,3.158,0,0,0-1.256-.464V171.3h7.318v.273a5.734,5.734,0,0,0-2.812,1.174,32.577,32.577,0,0,0-2.894,2.4q-.574.519-1.174,1.119t-1.188,1.2q-.587.6-1.146,1.16t-1.024,1.052q.217.273,1.01,1.187t1.884,2.144q1.092,1.228,2.334,2.621l2.389,2.675a6.843,6.843,0,0,0,.628.655c.236.218.465.414.683.587s.41.323.573.45a1.537,1.537,0,0,0,.328.218,7.1,7.1,0,0,0,.969.273,9.49,9.49,0,0,0,1.379.192v.273Z" transform="translate(-145.658 -170.889)" fill="#fff"/>
        <path id="Path_1812" data-name="Path 1812" d="M246.866,190.957H230.157v-.273a5.544,5.544,0,0,0,1.269-.355,2.6,2.6,0,0,0,.97-.683,1.249,1.249,0,0,0,.218-.478c.055-.209.1-.45.15-.723a8.508,8.508,0,0,0,.1-.86c.018-.3.027-.6.027-.888q0-.382.014-1.037t.026-1.434q.015-.778.014-1.6v-6.908c0-.327,0-.664-.014-1.01s-.026-.674-.054-.983a5.155,5.155,0,0,0-.137-.833,1.169,1.169,0,0,0-.259-.533,1.86,1.86,0,0,0-.874-.559,11.149,11.149,0,0,0-1.2-.232V171.3h15.071l1.857,4.5-.273.137a13.274,13.274,0,0,0-4.15-3.713,6.6,6.6,0,0,0-1.72-.382,24.09,24.09,0,0,0-3.058-.164q-.574,0-1.188.042a7.74,7.74,0,0,0-.887.1q-.056.437-.1,1.8t-.042,3.167v1.747q0,.71.014,1.161t.013.7v.3h.547q.409,0,.942-.027t1.065-.068a6.134,6.134,0,0,0,.887-.123,4.75,4.75,0,0,0,1.365-.518,3.006,3.006,0,0,0,.888-.792,3.843,3.843,0,0,0,.546-1.078,12.92,12.92,0,0,0,.369-1.379h.328v8.6h-.328a9.46,9.46,0,0,0-.669-1.8,4.806,4.806,0,0,0-.942-1.392,3.6,3.6,0,0,0-1.051-.628,4.707,4.707,0,0,0-1.434-.3q-.409-.027-.683-.041t-.546-.013h-1.256a8.556,8.556,0,0,0-.055,1.119v3.276c0,.291,0,.57.014.833s.013.488.013.67q.026.873.1,1.652a2.61,2.61,0,0,0,.314,1.16,1.717,1.717,0,0,0,1.174.547,11.7,11.7,0,0,0,2.021.163q.464,0,1.187-.027t1.516-.136a5.967,5.967,0,0,0,1.61-.424,5.64,5.64,0,0,0,1.42-.887,9.022,9.022,0,0,0,1.324-1.406,18.717,18.717,0,0,0,1.324-2.007l.3.082Z" transform="translate(-148.415 -170.889)" fill="#fff"/>
        <path id="Path_1813" data-name="Path 1813" d="M267.178,190.953q-.246-.246-.355-.369c-.072-.082-.155-.177-.246-.286a5.3,5.3,0,0,1-.341-.478q-.205-.314-.642-.942-.519-.764-.914-1.379t-.806-1.215q-.409-.6-.888-1.214t-1.132-1.379a11.223,11.223,0,0,0-1.188-1.175,2.94,2.94,0,0,0-1.351-.683,4.209,4.209,0,0,0-.792-.109q-.245,0-.628-.027v3.085q0,1.31.027,2.212.027.873.055,1.5a2,2,0,0,0,.3,1.038,2.414,2.414,0,0,0,.846.724,3.855,3.855,0,0,0,1.747.423v.273h-8.736v-.273a7.629,7.629,0,0,0,1.311-.328,2.129,2.129,0,0,0,.982-.655,1.243,1.243,0,0,0,.219-.492,5.155,5.155,0,0,0,.123-.737c.027-.273.049-.564.068-.874s.027-.609.027-.9q0-.382.014-1.037t.026-1.434q.015-.778.014-1.6v-6.908q0-.49-.014-1t-.054-.956a5.133,5.133,0,0,0-.137-.819,1.164,1.164,0,0,0-.259-.533,2.064,2.064,0,0,0-.915-.587,9.29,9.29,0,0,0-1.243-.259V171.3h1.12q.927,0,2.1-.014t2.348-.013h1.911q1.828,0,3.249.11a6.482,6.482,0,0,1,2.593.737,5.255,5.255,0,0,1,1.939,1.706,4.71,4.71,0,0,1,.738,2.716,4.315,4.315,0,0,1-.369,1.816,4.816,4.816,0,0,1-.983,1.419,5.973,5.973,0,0,1-1.433,1.051,10.991,10.991,0,0,1-1.721.738v.082a3.5,3.5,0,0,1,.9.71,9.938,9.938,0,0,1,.846,1.037q.71,1.039,1.543,2.239t1.488,2.13a8.354,8.354,0,0,0,1.965,2.075,5.263,5.263,0,0,0,2.239.847v.273Zm-2.7-17.01a4.724,4.724,0,0,0-1.993-1.693,5.986,5.986,0,0,0-1.379-.436,8.177,8.177,0,0,0-1.516-.137c-.382,0-.692.01-.928.027s-.42.037-.546.055c-.019.11-.037.2-.055.287a2.231,2.231,0,0,0-.042.314c-.009.127-.019.306-.026.533s-.024.55-.042.969q-.028.957-.041,2.157t-.014,2.321v3q1.12,0,2.089-.1a8.545,8.545,0,0,0,1.871-.4,5.01,5.01,0,0,0,1.5-.738,4.3,4.3,0,0,0,1.025-1.051,4.362,4.362,0,0,0,.586-1.27,5.243,5.243,0,0,0,.192-1.419A4.407,4.407,0,0,0,264.476,173.943Z" transform="translate(-150.981 -170.886)" fill="#fff"/>
        <path id="Path_1814" data-name="Path 1814" d="M289.351,187.886a5.319,5.319,0,0,1-1.474,1.774,6.256,6.256,0,0,1-2.252,1.092,10.944,10.944,0,0,1-2.867.355,13.77,13.77,0,0,1-2.294-.164,8.995,8.995,0,0,1-1.584-.4,5.648,5.648,0,0,1-.942-.423,1.218,1.218,0,0,0-.4-.191c-.055,0-.173.109-.355.328s-.346.427-.491.628h-.246l-.081-5.433h.273a8.59,8.59,0,0,0,.628,1.433,11.812,11.812,0,0,0,.833,1.311,7.332,7.332,0,0,0,.956,1.078,4.7,4.7,0,0,0,.969.71,7.77,7.77,0,0,0,1.229.491,5.123,5.123,0,0,0,4.75-.86,3.779,3.779,0,0,0,1.256-2.989,3.384,3.384,0,0,0-.246-1.338,3.137,3.137,0,0,0-.669-1,4.077,4.077,0,0,0-1-.723,10.752,10.752,0,0,0-1.229-.546q-.654-.246-1.146-.41c-.327-.11-.632-.214-.914-.314s-.573-.2-.874-.3-.66-.232-1.078-.4a5.9,5.9,0,0,1-1.366-.751,5.535,5.535,0,0,1-1.146-1.12,5.682,5.682,0,0,1-.792-1.419,4.537,4.537,0,0,1-.3-1.652,5.561,5.561,0,0,1,.539-2.539,5.192,5.192,0,0,1,1.447-1.774,6.122,6.122,0,0,1,2.1-1.051,8.986,8.986,0,0,1,2.5-.342,9.368,9.368,0,0,1,2.1.2,8.425,8.425,0,0,1,1.434.451,4.919,4.919,0,0,1,.846.45,1.841,1.841,0,0,0,.314.2c.055,0,.168-.109.341-.328s.332-.436.478-.654h.3v5.05h-.3a11.007,11.007,0,0,0-.846-1.789,8.084,8.084,0,0,0-1.2-1.584A5.8,5.8,0,0,0,285,171.832a4.272,4.272,0,0,0-1.939-.437,5.11,5.11,0,0,0-1.6.246,3.712,3.712,0,0,0-1.311.738,3.384,3.384,0,0,0-.874,1.214,4.118,4.118,0,0,0-.314,1.653,3.139,3.139,0,0,0,.872,2.32,6.19,6.19,0,0,0,2.261,1.393q.543.219,1.02.382t.94.314q.462.15.94.314t.995.355a6.353,6.353,0,0,1,2.873,1.979,5.556,5.556,0,0,1,.488,5.584Z" transform="translate(-153.81 -170.849)" fill="#fff"/>
      </g>
    </g>
  </g>
</svg>
